M48
; DRILL file {KiCad (6.0.7)} date Mon Sep  5 13:32:51 2022
; FORMAT={-:-/ absolute / metric / decimal}
; #@! TF.CreationDate,2022-09-05T13:32:51-07:00
; #@! TF.GenerationSoftware,Kicad,Pcbnew,(6.0.7)
; #@! TF.FileFunction,Plated,1,2,PTH
FMAT,2
METRIC
; #@! TA.AperFunction,Plated,PTH,ViaDrill
T1C0.400
; #@! TA.AperFunction,Plated,PTH,ComponentDrill
T2C0.700
; #@! TA.AperFunction,Plated,PTH,ComponentDrill
T3C1.300
; #@! TA.AperFunction,Plated,PTH,ViaDrill
T4C2.500
%
G90
G05
T1
X81.5Y-104.5
X81.5Y-116.0
X81.5Y-127.75
X81.75Y-97.75
X84.0Y-107.0
X84.0Y-116.75
X84.25Y-96.25
X85.75Y-119.75
X85.75Y-126.25
X86.0Y-99.25
X87.5Y-106.0
X87.5Y-109.5
X87.5Y-115.5
X89.25Y-97.751
X91.75Y-102.5
X92.25Y-119.75
X92.25Y-126.25
X92.5Y-108.75
X94.4Y-97.75
X95.5Y-118.75
X95.785Y-127.715
X96.5Y-110.5
X96.75Y-105.75
X96.75Y-120.75
X97.25Y-99.25
X99.0Y-102.5
X99.117Y-91.632
X100.0Y-113.5
X103.0Y-111.25
X105.0Y-97.0
X105.0Y-116.0
X105.475Y-101.275
X106.25Y-103.75
X108.25Y-91.25
X108.5Y-97.0
X109.75Y-93.0
X111.5Y-118.75
X122.75Y-92.25
X151.0Y-120.75
T2
X147.0Y-109.5
X147.0Y-112.5
X147.0Y-115.5
X147.0Y-118.5
T3
X108.76Y-108.5
X108.76Y-113.5
X108.76Y-123.5
X108.76Y-128.5
X121.26Y-108.5
X121.26Y-113.5
X121.26Y-123.5
X121.26Y-128.5
X125.76Y-123.5
X125.76Y-128.5
X125.83Y-108.5
X125.83Y-113.5
X133.76Y-94.5
X133.76Y-99.5
X138.26Y-123.5
X138.26Y-128.5
X138.33Y-108.5
X138.33Y-113.5
X146.26Y-94.5
X146.26Y-99.5
T4
X83.0Y-93.0
X151.0Y-93.0
X151.0Y-130.0
T0
M30
