G04 #@! TF.GenerationSoftware,KiCad,Pcbnew,(6.0.7)*
G04 #@! TF.CreationDate,2022-09-05T13:32:46-07:00*
G04 #@! TF.ProjectId,ElGato32,456c4761-746f-4333-922e-6b696361645f,rev?*
G04 #@! TF.SameCoordinates,Original*
G04 #@! TF.FileFunction,Legend,Bot*
G04 #@! TF.FilePolarity,Positive*
%FSLAX46Y46*%
G04 Gerber Fmt 4.6, Leading zero omitted, Abs format (unit mm)*
G04 Created by KiCad (PCBNEW (6.0.7)) date 2022-09-05 13:32:46*
%MOMM*%
%LPD*%
G01*
G04 APERTURE LIST*
%ADD10C,0.010000*%
%ADD11C,0.300000*%
%ADD12R,1.500000X1.500000*%
%ADD13O,3.048000X1.850000*%
%ADD14C,0.650000*%
G04 APERTURE END LIST*
D10*
G36*
X143196436Y-126706182D02*
G01*
X143210228Y-126707501D01*
X143223524Y-126710239D01*
X143236373Y-126714303D01*
X143248825Y-126719600D01*
X143260929Y-126726040D01*
X143272734Y-126733530D01*
X143284289Y-126741977D01*
X143295645Y-126751290D01*
X143306849Y-126761377D01*
X143317952Y-126772145D01*
X143340051Y-126795359D01*
X143385198Y-126845915D01*
X143409036Y-126871786D01*
X143434242Y-126897069D01*
X143447481Y-126909261D01*
X143461211Y-126921029D01*
X143475479Y-126932283D01*
X143490337Y-126942929D01*
X143505832Y-126952876D01*
X143522014Y-126962033D01*
X143538933Y-126970306D01*
X143556637Y-126977604D01*
X143575177Y-126983834D01*
X143594601Y-126988905D01*
X143614959Y-126992725D01*
X143636299Y-126995201D01*
X143658001Y-126996296D01*
X143679488Y-126996097D01*
X143700747Y-126994695D01*
X143721764Y-126992176D01*
X143742527Y-126988630D01*
X143763021Y-126984146D01*
X143803149Y-126972715D01*
X143842040Y-126958593D01*
X143879586Y-126942487D01*
X143915679Y-126925106D01*
X143950209Y-126907158D01*
X144014148Y-126872395D01*
X144043341Y-126856998D01*
X144070538Y-126843867D01*
X144095631Y-126833712D01*
X144118510Y-126827241D01*
X144129087Y-126825608D01*
X144139069Y-126825162D01*
X144148444Y-126825991D01*
X144157198Y-126828183D01*
X144165225Y-126831674D01*
X144172581Y-126836351D01*
X144179284Y-126842165D01*
X144185350Y-126849062D01*
X144190796Y-126856992D01*
X144195640Y-126865903D01*
X144199897Y-126875743D01*
X144203586Y-126886462D01*
X144206723Y-126898006D01*
X144209325Y-126910326D01*
X144211408Y-126923368D01*
X144212991Y-126937082D01*
X144214720Y-126966320D01*
X144214647Y-126997625D01*
X144212908Y-127030585D01*
X144209639Y-127064789D01*
X144204974Y-127099823D01*
X144199050Y-127135275D01*
X144192002Y-127170732D01*
X144183965Y-127205783D01*
X144175074Y-127240014D01*
X144165466Y-127273014D01*
X144094205Y-127485026D01*
X144077340Y-127538613D01*
X144062642Y-127591321D01*
X144051006Y-127642595D01*
X144043327Y-127691877D01*
X144041250Y-127715597D01*
X144040498Y-127738612D01*
X144041182Y-127760850D01*
X144043413Y-127782243D01*
X144047305Y-127802720D01*
X144052968Y-127822214D01*
X144060514Y-127840653D01*
X144070054Y-127857968D01*
X144081702Y-127874091D01*
X144095568Y-127888951D01*
X144111765Y-127902479D01*
X144130403Y-127914605D01*
X144151595Y-127925260D01*
X144175453Y-127934374D01*
X144202088Y-127941877D01*
X144231612Y-127947701D01*
X144366022Y-127968501D01*
X144518106Y-127995037D01*
X144599322Y-128012249D01*
X144683212Y-128033045D01*
X144769195Y-128058144D01*
X144856690Y-128088261D01*
X144945114Y-128124115D01*
X145033888Y-128166422D01*
X145122429Y-128215899D01*
X145166431Y-128243550D01*
X145210156Y-128273263D01*
X145253533Y-128305127D01*
X145296488Y-128339231D01*
X145338949Y-128375666D01*
X145380844Y-128414520D01*
X145422098Y-128455885D01*
X145462641Y-128499848D01*
X145502399Y-128546500D01*
X145541299Y-128595931D01*
X145613357Y-128698603D01*
X145676329Y-128802700D01*
X145731095Y-128907439D01*
X145778535Y-129012039D01*
X145819531Y-129115719D01*
X145854962Y-129217695D01*
X145885709Y-129317186D01*
X145912653Y-129413410D01*
X146000000Y-129750000D01*
X146021132Y-129818160D01*
X146043743Y-129878363D01*
X146068714Y-129929825D01*
X146096924Y-129971764D01*
X146147496Y-130031037D01*
X146198042Y-130085170D01*
X146248459Y-130134483D01*
X146298644Y-130179297D01*
X146348492Y-130219934D01*
X146397900Y-130256715D01*
X146446765Y-130289960D01*
X146494983Y-130319990D01*
X146589062Y-130371691D01*
X146679310Y-130414387D01*
X146844993Y-130483034D01*
X146918771Y-130514121D01*
X146985401Y-130546476D01*
X147015777Y-130563932D01*
X147044055Y-130582667D01*
X147070132Y-130603003D01*
X147093903Y-130625260D01*
X147115266Y-130649761D01*
X147134117Y-130676826D01*
X147150352Y-130706776D01*
X147163868Y-130739931D01*
X147174560Y-130776614D01*
X147182326Y-130817145D01*
X147187061Y-130861845D01*
X147188663Y-130911035D01*
X147187464Y-130933902D01*
X147183963Y-130956332D01*
X147178299Y-130978288D01*
X147170613Y-130999738D01*
X147161046Y-131020646D01*
X147149739Y-131040979D01*
X147136832Y-131060701D01*
X147122465Y-131079779D01*
X147106779Y-131098179D01*
X147089916Y-131115865D01*
X147072015Y-131132803D01*
X147053217Y-131148960D01*
X147033663Y-131164300D01*
X147013493Y-131178790D01*
X146992848Y-131192395D01*
X146971869Y-131205081D01*
X146950696Y-131216813D01*
X146929470Y-131227557D01*
X146908331Y-131237279D01*
X146887420Y-131245944D01*
X146866878Y-131253517D01*
X146846845Y-131259966D01*
X146827463Y-131265255D01*
X146808870Y-131269349D01*
X146791209Y-131272215D01*
X146774620Y-131273818D01*
X146759243Y-131274124D01*
X146745219Y-131273098D01*
X146732689Y-131270707D01*
X146721793Y-131266915D01*
X146712671Y-131261689D01*
X146705466Y-131254993D01*
X146701237Y-131247095D01*
X146700706Y-131238297D01*
X146703501Y-131228620D01*
X146709252Y-131218084D01*
X146728138Y-131194524D01*
X146754397Y-131167782D01*
X146817166Y-131105425D01*
X146847742Y-131070145D01*
X146861529Y-131051552D01*
X146873822Y-131032353D01*
X146884250Y-131012567D01*
X146892441Y-130992216D01*
X146898025Y-130971321D01*
X146900632Y-130949903D01*
X146899889Y-130927982D01*
X146895426Y-130905580D01*
X146886873Y-130882718D01*
X146873858Y-130859415D01*
X146856011Y-130835694D01*
X146832961Y-130811575D01*
X146804336Y-130787080D01*
X146769767Y-130762228D01*
X146728881Y-130737042D01*
X146681310Y-130711541D01*
X146626680Y-130685747D01*
X146564622Y-130659681D01*
X146206211Y-130516692D01*
X146141211Y-130492374D01*
X146084069Y-130472708D01*
X146033791Y-130457734D01*
X145989386Y-130447490D01*
X145949861Y-130442016D01*
X145914226Y-130441353D01*
X145881486Y-130445540D01*
X145850650Y-130454617D01*
X145820727Y-130468624D01*
X145790723Y-130487600D01*
X145759648Y-130511585D01*
X145726507Y-130540618D01*
X144231612Y-130540618D01*
X144231868Y-130502738D01*
X144232951Y-130468663D01*
X144235332Y-130438204D01*
X144237156Y-130424273D01*
X144239482Y-130411176D01*
X144242367Y-130398888D01*
X144245871Y-130387388D01*
X144250053Y-130376651D01*
X144254972Y-130366654D01*
X144260686Y-130357374D01*
X144267254Y-130348787D01*
X144274736Y-130340869D01*
X144283190Y-130333597D01*
X144292675Y-130326948D01*
X144303250Y-130320898D01*
X144314974Y-130315423D01*
X144327906Y-130310501D01*
X144342104Y-130306107D01*
X144357628Y-130302219D01*
X144374536Y-130298812D01*
X144392887Y-130295864D01*
X144412740Y-130293350D01*
X144434155Y-130291248D01*
X144481902Y-130288183D01*
X144536601Y-130286482D01*
X144598721Y-130285957D01*
X144586226Y-130251683D01*
X144570095Y-130212747D01*
X144550727Y-130170097D01*
X144528523Y-130124682D01*
X144503886Y-130077449D01*
X144477216Y-130029348D01*
X144448914Y-129981326D01*
X144419382Y-129934332D01*
X144389021Y-129889315D01*
X144358231Y-129847223D01*
X144327414Y-129809005D01*
X144296971Y-129775608D01*
X144267303Y-129747982D01*
X144252886Y-129736630D01*
X144238812Y-129727075D01*
X144225133Y-129719438D01*
X144211898Y-129713835D01*
X144199159Y-129710387D01*
X144186963Y-129709211D01*
X144165681Y-129709344D01*
X144144118Y-129709978D01*
X144122503Y-129711473D01*
X144101064Y-129714184D01*
X144080030Y-129718471D01*
X144069736Y-129721316D01*
X144059628Y-129724689D01*
X144049735Y-129728634D01*
X144040086Y-129733197D01*
X144030710Y-129738421D01*
X144021633Y-129744352D01*
X144012886Y-129751033D01*
X144004497Y-129758510D01*
X143996494Y-129766828D01*
X143988905Y-129776031D01*
X143981760Y-129786164D01*
X143975087Y-129797271D01*
X143968914Y-129809397D01*
X143963269Y-129822587D01*
X143958182Y-129836885D01*
X143953680Y-129852337D01*
X143949793Y-129868986D01*
X143946549Y-129886878D01*
X143943976Y-129906057D01*
X143942103Y-129926568D01*
X143940958Y-129948455D01*
X143940570Y-129971764D01*
X143939162Y-129999546D01*
X143935041Y-130028218D01*
X143928365Y-130057627D01*
X143919293Y-130087620D01*
X143907981Y-130118042D01*
X143894588Y-130148741D01*
X143879271Y-130179562D01*
X143862187Y-130210352D01*
X143823350Y-130271224D01*
X143779338Y-130330129D01*
X143731413Y-130385838D01*
X143680835Y-130437121D01*
X143628866Y-130482750D01*
X143576765Y-130521497D01*
X143551060Y-130537905D01*
X143525795Y-130552131D01*
X143501128Y-130564023D01*
X143477216Y-130573425D01*
X143454217Y-130580186D01*
X143432289Y-130584150D01*
X143411589Y-130585165D01*
X143392275Y-130583076D01*
X143374504Y-130577731D01*
X143358434Y-130568975D01*
X143344223Y-130556656D01*
X143332029Y-130540618D01*
X143317330Y-130514928D01*
X143306279Y-130491208D01*
X143298668Y-130469250D01*
X143294288Y-130448843D01*
X143292930Y-130429777D01*
X143294386Y-130411842D01*
X143298447Y-130394828D01*
X143304904Y-130378525D01*
X143313549Y-130362722D01*
X143324173Y-130347210D01*
X143336567Y-130331779D01*
X143350524Y-130316218D01*
X143417793Y-130248477D01*
X143455374Y-130208367D01*
X143474420Y-130186017D01*
X143493359Y-130161856D01*
X143511982Y-130135676D01*
X143530080Y-130107265D01*
X143547445Y-130076413D01*
X143563868Y-130042911D01*
X143579140Y-130006548D01*
X143593053Y-129967115D01*
X143605398Y-129924401D01*
X143615966Y-129878195D01*
X143624549Y-129828289D01*
X143630938Y-129774472D01*
X143634924Y-129716533D01*
X143636299Y-129654264D01*
X143634723Y-129569114D01*
X143630130Y-129489947D01*
X143622720Y-129416444D01*
X143612695Y-129348287D01*
X143600255Y-129285157D01*
X143585603Y-129226737D01*
X143568939Y-129172708D01*
X143550464Y-129122751D01*
X143530380Y-129076549D01*
X143508888Y-129033783D01*
X143486189Y-128994134D01*
X143462484Y-128957286D01*
X143412860Y-128890715D01*
X143361628Y-128831524D01*
X143260772Y-128725095D01*
X143214367Y-128672765D01*
X143172791Y-128617630D01*
X143154316Y-128588215D01*
X143137652Y-128557144D01*
X143123000Y-128524099D01*
X143110561Y-128488761D01*
X143100536Y-128450812D01*
X143093126Y-128409934D01*
X143088532Y-128365809D01*
X143086956Y-128318118D01*
X143087777Y-128271097D01*
X143090097Y-128228880D01*
X143093702Y-128190907D01*
X143098377Y-128156617D01*
X143103909Y-128125452D01*
X143110083Y-128096850D01*
X143123503Y-128045097D01*
X143136922Y-127996880D01*
X143143096Y-127972697D01*
X143148628Y-127947718D01*
X143153304Y-127921382D01*
X143156908Y-127893131D01*
X143159228Y-127862403D01*
X143160049Y-127828639D01*
X143159419Y-127805962D01*
X143157586Y-127784745D01*
X143154640Y-127764900D01*
X143150669Y-127746338D01*
X143145762Y-127728970D01*
X143140007Y-127712706D01*
X143133492Y-127697458D01*
X143126306Y-127683136D01*
X143118538Y-127669652D01*
X143110276Y-127656916D01*
X143101608Y-127644840D01*
X143092623Y-127633334D01*
X143074057Y-127611677D01*
X143055285Y-127591233D01*
X143037015Y-127571289D01*
X143019956Y-127551134D01*
X143012101Y-127540754D01*
X143004814Y-127530054D01*
X142998184Y-127518946D01*
X142992299Y-127507339D01*
X142987247Y-127495144D01*
X142983118Y-127482274D01*
X142979999Y-127468638D01*
X142977979Y-127454148D01*
X142977146Y-127438714D01*
X142977590Y-127422248D01*
X142979398Y-127404661D01*
X142982659Y-127385863D01*
X143003660Y-127282439D01*
X143013272Y-127232176D01*
X143022298Y-127181523D01*
X143030746Y-127129466D01*
X143038621Y-127074989D01*
X143045931Y-127017076D01*
X143052680Y-126954712D01*
X143057139Y-126908544D01*
X143062363Y-126863309D01*
X143065745Y-126841570D01*
X143069899Y-126820698D01*
X143075019Y-126800905D01*
X143081297Y-126782402D01*
X143088926Y-126765400D01*
X143093309Y-126757528D01*
X143098101Y-126750111D01*
X143103329Y-126743175D01*
X143109015Y-126736746D01*
X143115185Y-126730852D01*
X143121861Y-126725517D01*
X143129069Y-126720769D01*
X143136833Y-126716634D01*
X143145176Y-126713139D01*
X143154124Y-126710310D01*
X143163699Y-126708173D01*
X143173927Y-126706755D01*
X143184831Y-126706083D01*
X143196436Y-126706182D01*
G37*
X143196436Y-126706182D02*
X143210228Y-126707501D01*
X143223524Y-126710239D01*
X143236373Y-126714303D01*
X143248825Y-126719600D01*
X143260929Y-126726040D01*
X143272734Y-126733530D01*
X143284289Y-126741977D01*
X143295645Y-126751290D01*
X143306849Y-126761377D01*
X143317952Y-126772145D01*
X143340051Y-126795359D01*
X143385198Y-126845915D01*
X143409036Y-126871786D01*
X143434242Y-126897069D01*
X143447481Y-126909261D01*
X143461211Y-126921029D01*
X143475479Y-126932283D01*
X143490337Y-126942929D01*
X143505832Y-126952876D01*
X143522014Y-126962033D01*
X143538933Y-126970306D01*
X143556637Y-126977604D01*
X143575177Y-126983834D01*
X143594601Y-126988905D01*
X143614959Y-126992725D01*
X143636299Y-126995201D01*
X143658001Y-126996296D01*
X143679488Y-126996097D01*
X143700747Y-126994695D01*
X143721764Y-126992176D01*
X143742527Y-126988630D01*
X143763021Y-126984146D01*
X143803149Y-126972715D01*
X143842040Y-126958593D01*
X143879586Y-126942487D01*
X143915679Y-126925106D01*
X143950209Y-126907158D01*
X144014148Y-126872395D01*
X144043341Y-126856998D01*
X144070538Y-126843867D01*
X144095631Y-126833712D01*
X144118510Y-126827241D01*
X144129087Y-126825608D01*
X144139069Y-126825162D01*
X144148444Y-126825991D01*
X144157198Y-126828183D01*
X144165225Y-126831674D01*
X144172581Y-126836351D01*
X144179284Y-126842165D01*
X144185350Y-126849062D01*
X144190796Y-126856992D01*
X144195640Y-126865903D01*
X144199897Y-126875743D01*
X144203586Y-126886462D01*
X144206723Y-126898006D01*
X144209325Y-126910326D01*
X144211408Y-126923368D01*
X144212991Y-126937082D01*
X144214720Y-126966320D01*
X144214647Y-126997625D01*
X144212908Y-127030585D01*
X144209639Y-127064789D01*
X144204974Y-127099823D01*
X144199050Y-127135275D01*
X144192002Y-127170732D01*
X144183965Y-127205783D01*
X144175074Y-127240014D01*
X144165466Y-127273014D01*
X144094205Y-127485026D01*
X144077340Y-127538613D01*
X144062642Y-127591321D01*
X144051006Y-127642595D01*
X144043327Y-127691877D01*
X144041250Y-127715597D01*
X144040498Y-127738612D01*
X144041182Y-127760850D01*
X144043413Y-127782243D01*
X144047305Y-127802720D01*
X144052968Y-127822214D01*
X144060514Y-127840653D01*
X144070054Y-127857968D01*
X144081702Y-127874091D01*
X144095568Y-127888951D01*
X144111765Y-127902479D01*
X144130403Y-127914605D01*
X144151595Y-127925260D01*
X144175453Y-127934374D01*
X144202088Y-127941877D01*
X144231612Y-127947701D01*
X144366022Y-127968501D01*
X144518106Y-127995037D01*
X144599322Y-128012249D01*
X144683212Y-128033045D01*
X144769195Y-128058144D01*
X144856690Y-128088261D01*
X144945114Y-128124115D01*
X145033888Y-128166422D01*
X145122429Y-128215899D01*
X145166431Y-128243550D01*
X145210156Y-128273263D01*
X145253533Y-128305127D01*
X145296488Y-128339231D01*
X145338949Y-128375666D01*
X145380844Y-128414520D01*
X145422098Y-128455885D01*
X145462641Y-128499848D01*
X145502399Y-128546500D01*
X145541299Y-128595931D01*
X145613357Y-128698603D01*
X145676329Y-128802700D01*
X145731095Y-128907439D01*
X145778535Y-129012039D01*
X145819531Y-129115719D01*
X145854962Y-129217695D01*
X145885709Y-129317186D01*
X145912653Y-129413410D01*
X146000000Y-129750000D01*
X146021132Y-129818160D01*
X146043743Y-129878363D01*
X146068714Y-129929825D01*
X146096924Y-129971764D01*
X146147496Y-130031037D01*
X146198042Y-130085170D01*
X146248459Y-130134483D01*
X146298644Y-130179297D01*
X146348492Y-130219934D01*
X146397900Y-130256715D01*
X146446765Y-130289960D01*
X146494983Y-130319990D01*
X146589062Y-130371691D01*
X146679310Y-130414387D01*
X146844993Y-130483034D01*
X146918771Y-130514121D01*
X146985401Y-130546476D01*
X147015777Y-130563932D01*
X147044055Y-130582667D01*
X147070132Y-130603003D01*
X147093903Y-130625260D01*
X147115266Y-130649761D01*
X147134117Y-130676826D01*
X147150352Y-130706776D01*
X147163868Y-130739931D01*
X147174560Y-130776614D01*
X147182326Y-130817145D01*
X147187061Y-130861845D01*
X147188663Y-130911035D01*
X147187464Y-130933902D01*
X147183963Y-130956332D01*
X147178299Y-130978288D01*
X147170613Y-130999738D01*
X147161046Y-131020646D01*
X147149739Y-131040979D01*
X147136832Y-131060701D01*
X147122465Y-131079779D01*
X147106779Y-131098179D01*
X147089916Y-131115865D01*
X147072015Y-131132803D01*
X147053217Y-131148960D01*
X147033663Y-131164300D01*
X147013493Y-131178790D01*
X146992848Y-131192395D01*
X146971869Y-131205081D01*
X146950696Y-131216813D01*
X146929470Y-131227557D01*
X146908331Y-131237279D01*
X146887420Y-131245944D01*
X146866878Y-131253517D01*
X146846845Y-131259966D01*
X146827463Y-131265255D01*
X146808870Y-131269349D01*
X146791209Y-131272215D01*
X146774620Y-131273818D01*
X146759243Y-131274124D01*
X146745219Y-131273098D01*
X146732689Y-131270707D01*
X146721793Y-131266915D01*
X146712671Y-131261689D01*
X146705466Y-131254993D01*
X146701237Y-131247095D01*
X146700706Y-131238297D01*
X146703501Y-131228620D01*
X146709252Y-131218084D01*
X146728138Y-131194524D01*
X146754397Y-131167782D01*
X146817166Y-131105425D01*
X146847742Y-131070145D01*
X146861529Y-131051552D01*
X146873822Y-131032353D01*
X146884250Y-131012567D01*
X146892441Y-130992216D01*
X146898025Y-130971321D01*
X146900632Y-130949903D01*
X146899889Y-130927982D01*
X146895426Y-130905580D01*
X146886873Y-130882718D01*
X146873858Y-130859415D01*
X146856011Y-130835694D01*
X146832961Y-130811575D01*
X146804336Y-130787080D01*
X146769767Y-130762228D01*
X146728881Y-130737042D01*
X146681310Y-130711541D01*
X146626680Y-130685747D01*
X146564622Y-130659681D01*
X146206211Y-130516692D01*
X146141211Y-130492374D01*
X146084069Y-130472708D01*
X146033791Y-130457734D01*
X145989386Y-130447490D01*
X145949861Y-130442016D01*
X145914226Y-130441353D01*
X145881486Y-130445540D01*
X145850650Y-130454617D01*
X145820727Y-130468624D01*
X145790723Y-130487600D01*
X145759648Y-130511585D01*
X145726507Y-130540618D01*
X144231612Y-130540618D01*
X144231868Y-130502738D01*
X144232951Y-130468663D01*
X144235332Y-130438204D01*
X144237156Y-130424273D01*
X144239482Y-130411176D01*
X144242367Y-130398888D01*
X144245871Y-130387388D01*
X144250053Y-130376651D01*
X144254972Y-130366654D01*
X144260686Y-130357374D01*
X144267254Y-130348787D01*
X144274736Y-130340869D01*
X144283190Y-130333597D01*
X144292675Y-130326948D01*
X144303250Y-130320898D01*
X144314974Y-130315423D01*
X144327906Y-130310501D01*
X144342104Y-130306107D01*
X144357628Y-130302219D01*
X144374536Y-130298812D01*
X144392887Y-130295864D01*
X144412740Y-130293350D01*
X144434155Y-130291248D01*
X144481902Y-130288183D01*
X144536601Y-130286482D01*
X144598721Y-130285957D01*
X144586226Y-130251683D01*
X144570095Y-130212747D01*
X144550727Y-130170097D01*
X144528523Y-130124682D01*
X144503886Y-130077449D01*
X144477216Y-130029348D01*
X144448914Y-129981326D01*
X144419382Y-129934332D01*
X144389021Y-129889315D01*
X144358231Y-129847223D01*
X144327414Y-129809005D01*
X144296971Y-129775608D01*
X144267303Y-129747982D01*
X144252886Y-129736630D01*
X144238812Y-129727075D01*
X144225133Y-129719438D01*
X144211898Y-129713835D01*
X144199159Y-129710387D01*
X144186963Y-129709211D01*
X144165681Y-129709344D01*
X144144118Y-129709978D01*
X144122503Y-129711473D01*
X144101064Y-129714184D01*
X144080030Y-129718471D01*
X144069736Y-129721316D01*
X144059628Y-129724689D01*
X144049735Y-129728634D01*
X144040086Y-129733197D01*
X144030710Y-129738421D01*
X144021633Y-129744352D01*
X144012886Y-129751033D01*
X144004497Y-129758510D01*
X143996494Y-129766828D01*
X143988905Y-129776031D01*
X143981760Y-129786164D01*
X143975087Y-129797271D01*
X143968914Y-129809397D01*
X143963269Y-129822587D01*
X143958182Y-129836885D01*
X143953680Y-129852337D01*
X143949793Y-129868986D01*
X143946549Y-129886878D01*
X143943976Y-129906057D01*
X143942103Y-129926568D01*
X143940958Y-129948455D01*
X143940570Y-129971764D01*
X143939162Y-129999546D01*
X143935041Y-130028218D01*
X143928365Y-130057627D01*
X143919293Y-130087620D01*
X143907981Y-130118042D01*
X143894588Y-130148741D01*
X143879271Y-130179562D01*
X143862187Y-130210352D01*
X143823350Y-130271224D01*
X143779338Y-130330129D01*
X143731413Y-130385838D01*
X143680835Y-130437121D01*
X143628866Y-130482750D01*
X143576765Y-130521497D01*
X143551060Y-130537905D01*
X143525795Y-130552131D01*
X143501128Y-130564023D01*
X143477216Y-130573425D01*
X143454217Y-130580186D01*
X143432289Y-130584150D01*
X143411589Y-130585165D01*
X143392275Y-130583076D01*
X143374504Y-130577731D01*
X143358434Y-130568975D01*
X143344223Y-130556656D01*
X143332029Y-130540618D01*
X143317330Y-130514928D01*
X143306279Y-130491208D01*
X143298668Y-130469250D01*
X143294288Y-130448843D01*
X143292930Y-130429777D01*
X143294386Y-130411842D01*
X143298447Y-130394828D01*
X143304904Y-130378525D01*
X143313549Y-130362722D01*
X143324173Y-130347210D01*
X143336567Y-130331779D01*
X143350524Y-130316218D01*
X143417793Y-130248477D01*
X143455374Y-130208367D01*
X143474420Y-130186017D01*
X143493359Y-130161856D01*
X143511982Y-130135676D01*
X143530080Y-130107265D01*
X143547445Y-130076413D01*
X143563868Y-130042911D01*
X143579140Y-130006548D01*
X143593053Y-129967115D01*
X143605398Y-129924401D01*
X143615966Y-129878195D01*
X143624549Y-129828289D01*
X143630938Y-129774472D01*
X143634924Y-129716533D01*
X143636299Y-129654264D01*
X143634723Y-129569114D01*
X143630130Y-129489947D01*
X143622720Y-129416444D01*
X143612695Y-129348287D01*
X143600255Y-129285157D01*
X143585603Y-129226737D01*
X143568939Y-129172708D01*
X143550464Y-129122751D01*
X143530380Y-129076549D01*
X143508888Y-129033783D01*
X143486189Y-128994134D01*
X143462484Y-128957286D01*
X143412860Y-128890715D01*
X143361628Y-128831524D01*
X143260772Y-128725095D01*
X143214367Y-128672765D01*
X143172791Y-128617630D01*
X143154316Y-128588215D01*
X143137652Y-128557144D01*
X143123000Y-128524099D01*
X143110561Y-128488761D01*
X143100536Y-128450812D01*
X143093126Y-128409934D01*
X143088532Y-128365809D01*
X143086956Y-128318118D01*
X143087777Y-128271097D01*
X143090097Y-128228880D01*
X143093702Y-128190907D01*
X143098377Y-128156617D01*
X143103909Y-128125452D01*
X143110083Y-128096850D01*
X143123503Y-128045097D01*
X143136922Y-127996880D01*
X143143096Y-127972697D01*
X143148628Y-127947718D01*
X143153304Y-127921382D01*
X143156908Y-127893131D01*
X143159228Y-127862403D01*
X143160049Y-127828639D01*
X143159419Y-127805962D01*
X143157586Y-127784745D01*
X143154640Y-127764900D01*
X143150669Y-127746338D01*
X143145762Y-127728970D01*
X143140007Y-127712706D01*
X143133492Y-127697458D01*
X143126306Y-127683136D01*
X143118538Y-127669652D01*
X143110276Y-127656916D01*
X143101608Y-127644840D01*
X143092623Y-127633334D01*
X143074057Y-127611677D01*
X143055285Y-127591233D01*
X143037015Y-127571289D01*
X143019956Y-127551134D01*
X143012101Y-127540754D01*
X143004814Y-127530054D01*
X142998184Y-127518946D01*
X142992299Y-127507339D01*
X142987247Y-127495144D01*
X142983118Y-127482274D01*
X142979999Y-127468638D01*
X142977979Y-127454148D01*
X142977146Y-127438714D01*
X142977590Y-127422248D01*
X142979398Y-127404661D01*
X142982659Y-127385863D01*
X143003660Y-127282439D01*
X143013272Y-127232176D01*
X143022298Y-127181523D01*
X143030746Y-127129466D01*
X143038621Y-127074989D01*
X143045931Y-127017076D01*
X143052680Y-126954712D01*
X143057139Y-126908544D01*
X143062363Y-126863309D01*
X143065745Y-126841570D01*
X143069899Y-126820698D01*
X143075019Y-126800905D01*
X143081297Y-126782402D01*
X143088926Y-126765400D01*
X143093309Y-126757528D01*
X143098101Y-126750111D01*
X143103329Y-126743175D01*
X143109015Y-126736746D01*
X143115185Y-126730852D01*
X143121861Y-126725517D01*
X143129069Y-126720769D01*
X143136833Y-126716634D01*
X143145176Y-126713139D01*
X143154124Y-126710310D01*
X143163699Y-126708173D01*
X143173927Y-126706755D01*
X143184831Y-126706083D01*
X143196436Y-126706182D01*
D11*
X102678571Y-129428571D02*
X102678571Y-130500000D01*
X102750000Y-130714285D01*
X102892857Y-130857142D01*
X103107142Y-130928571D01*
X103250000Y-130928571D01*
X101250000Y-130928571D02*
X101964285Y-130928571D01*
X101964285Y-129428571D01*
X99892857Y-130785714D02*
X99964285Y-130857142D01*
X100178571Y-130928571D01*
X100321428Y-130928571D01*
X100535714Y-130857142D01*
X100678571Y-130714285D01*
X100750000Y-130571428D01*
X100821428Y-130285714D01*
X100821428Y-130071428D01*
X100750000Y-129785714D01*
X100678571Y-129642857D01*
X100535714Y-129500000D01*
X100321428Y-129428571D01*
X100178571Y-129428571D01*
X99964285Y-129500000D01*
X99892857Y-129571428D01*
X98821428Y-129428571D02*
X98821428Y-130500000D01*
X98892857Y-130714285D01*
X99035714Y-130857142D01*
X99250000Y-130928571D01*
X99392857Y-130928571D01*
X97392857Y-130928571D02*
X98107142Y-130928571D01*
X98107142Y-129428571D01*
X96035714Y-130785714D02*
X96107142Y-130857142D01*
X96321428Y-130928571D01*
X96464285Y-130928571D01*
X96678571Y-130857142D01*
X96821428Y-130714285D01*
X96892857Y-130571428D01*
X96964285Y-130285714D01*
X96964285Y-130071428D01*
X96892857Y-129785714D01*
X96821428Y-129642857D01*
X96678571Y-129500000D01*
X96464285Y-129428571D01*
X96321428Y-129428571D01*
X96107142Y-129500000D01*
X96035714Y-129571428D01*
X94964285Y-129428571D02*
X94964285Y-130500000D01*
X95035714Y-130714285D01*
X95178571Y-130857142D01*
X95392857Y-130928571D01*
X95535714Y-130928571D01*
X93535714Y-130928571D02*
X94250000Y-130928571D01*
X94250000Y-129428571D01*
X92178571Y-130785714D02*
X92250000Y-130857142D01*
X92464285Y-130928571D01*
X92607142Y-130928571D01*
X92821428Y-130857142D01*
X92964285Y-130714285D01*
X93035714Y-130571428D01*
X93107142Y-130285714D01*
X93107142Y-130071428D01*
X93035714Y-129785714D01*
X92964285Y-129642857D01*
X92821428Y-129500000D01*
X92607142Y-129428571D01*
X92464285Y-129428571D01*
X92250000Y-129500000D01*
X92178571Y-129571428D01*
X91107142Y-129428571D02*
X91107142Y-130500000D01*
X91178571Y-130714285D01*
X91321428Y-130857142D01*
X91535714Y-130928571D01*
X91678571Y-130928571D01*
X89678571Y-130928571D02*
X90392857Y-130928571D01*
X90392857Y-129428571D01*
X88321428Y-130785714D02*
X88392857Y-130857142D01*
X88607142Y-130928571D01*
X88750000Y-130928571D01*
X88964285Y-130857142D01*
X89107142Y-130714285D01*
X89178571Y-130571428D01*
X89250000Y-130285714D01*
X89250000Y-130071428D01*
X89178571Y-129785714D01*
X89107142Y-129642857D01*
X88964285Y-129500000D01*
X88750000Y-129428571D01*
X88607142Y-129428571D01*
X88392857Y-129500000D01*
X88321428Y-129571428D01*
X106773809Y-96887142D02*
X106107142Y-96887142D01*
X105821428Y-97934761D02*
X106773809Y-97934761D01*
X106773809Y-95934761D01*
X105821428Y-95934761D01*
X104678571Y-97934761D02*
X104869047Y-97839523D01*
X104964285Y-97649047D01*
X104964285Y-95934761D01*
X102869047Y-96030000D02*
X103059523Y-95934761D01*
X103345238Y-95934761D01*
X103630952Y-96030000D01*
X103821428Y-96220476D01*
X103916666Y-96410952D01*
X104011904Y-96791904D01*
X104011904Y-97077619D01*
X103916666Y-97458571D01*
X103821428Y-97649047D01*
X103630952Y-97839523D01*
X103345238Y-97934761D01*
X103154761Y-97934761D01*
X102869047Y-97839523D01*
X102773809Y-97744285D01*
X102773809Y-97077619D01*
X103154761Y-97077619D01*
X101059523Y-97934761D02*
X101059523Y-96887142D01*
X101154761Y-96696666D01*
X101345238Y-96601428D01*
X101726190Y-96601428D01*
X101916666Y-96696666D01*
X101059523Y-97839523D02*
X101250000Y-97934761D01*
X101726190Y-97934761D01*
X101916666Y-97839523D01*
X102011904Y-97649047D01*
X102011904Y-97458571D01*
X101916666Y-97268095D01*
X101726190Y-97172857D01*
X101250000Y-97172857D01*
X101059523Y-97077619D01*
X100392857Y-96601428D02*
X99630952Y-96601428D01*
X100107142Y-95934761D02*
X100107142Y-97649047D01*
X100011904Y-97839523D01*
X99821428Y-97934761D01*
X99630952Y-97934761D01*
X98678571Y-97934761D02*
X98869047Y-97839523D01*
X98964285Y-97744285D01*
X99059523Y-97553809D01*
X99059523Y-96982380D01*
X98964285Y-96791904D01*
X98869047Y-96696666D01*
X98678571Y-96601428D01*
X98392857Y-96601428D01*
X98202380Y-96696666D01*
X98107142Y-96791904D01*
X98011904Y-96982380D01*
X98011904Y-97553809D01*
X98107142Y-97744285D01*
X98202380Y-97839523D01*
X98392857Y-97934761D01*
X98678571Y-97934761D01*
X94488095Y-97744285D02*
X94583333Y-97839523D01*
X94869047Y-97934761D01*
X95059523Y-97934761D01*
X95345238Y-97839523D01*
X95535714Y-97649047D01*
X95630952Y-97458571D01*
X95726190Y-97077619D01*
X95726190Y-96791904D01*
X95630952Y-96410952D01*
X95535714Y-96220476D01*
X95345238Y-96030000D01*
X95059523Y-95934761D01*
X94869047Y-95934761D01*
X94583333Y-96030000D01*
X94488095Y-96125238D01*
X93345238Y-97934761D02*
X93535714Y-97839523D01*
X93630952Y-97744285D01*
X93726190Y-97553809D01*
X93726190Y-96982380D01*
X93630952Y-96791904D01*
X93535714Y-96696666D01*
X93345238Y-96601428D01*
X93059523Y-96601428D01*
X92869047Y-96696666D01*
X92773809Y-96791904D01*
X92678571Y-96982380D01*
X92678571Y-97553809D01*
X92773809Y-97744285D01*
X92869047Y-97839523D01*
X93059523Y-97934761D01*
X93345238Y-97934761D01*
X91821428Y-96601428D02*
X91821428Y-97934761D01*
X91821428Y-96791904D02*
X91726190Y-96696666D01*
X91535714Y-96601428D01*
X91250000Y-96601428D01*
X91059523Y-96696666D01*
X90964285Y-96887142D01*
X90964285Y-97934761D01*
X90297619Y-96601428D02*
X89535714Y-96601428D01*
X90011904Y-95934761D02*
X90011904Y-97649047D01*
X89916666Y-97839523D01*
X89726190Y-97934761D01*
X89535714Y-97934761D01*
X88869047Y-97934761D02*
X88869047Y-96601428D01*
X88869047Y-96982380D02*
X88773809Y-96791904D01*
X88678571Y-96696666D01*
X88488095Y-96601428D01*
X88297619Y-96601428D01*
X87345238Y-97934761D02*
X87535714Y-97839523D01*
X87630952Y-97744285D01*
X87726190Y-97553809D01*
X87726190Y-96982380D01*
X87630952Y-96791904D01*
X87535714Y-96696666D01*
X87345238Y-96601428D01*
X87059523Y-96601428D01*
X86869047Y-96696666D01*
X86773809Y-96791904D01*
X86678571Y-96982380D01*
X86678571Y-97553809D01*
X86773809Y-97744285D01*
X86869047Y-97839523D01*
X87059523Y-97934761D01*
X87345238Y-97934761D01*
X85535714Y-97934761D02*
X85726190Y-97839523D01*
X85821428Y-97649047D01*
X85821428Y-95934761D01*
X84488095Y-97934761D02*
X84678571Y-97839523D01*
X84773809Y-97649047D01*
X84773809Y-95934761D01*
X82964285Y-97839523D02*
X83154761Y-97934761D01*
X83535714Y-97934761D01*
X83726190Y-97839523D01*
X83821428Y-97649047D01*
X83821428Y-96887142D01*
X83726190Y-96696666D01*
X83535714Y-96601428D01*
X83154761Y-96601428D01*
X82964285Y-96696666D01*
X82869047Y-96887142D01*
X82869047Y-97077619D01*
X83821428Y-97268095D01*
X82011904Y-97934761D02*
X82011904Y-96601428D01*
X82011904Y-96982380D02*
X81916666Y-96791904D01*
X81821428Y-96696666D01*
X81630952Y-96601428D01*
X81440476Y-96601428D01*
X102250000Y-99154761D02*
X102250000Y-100583333D01*
X102345238Y-100869047D01*
X102535714Y-101059523D01*
X102821428Y-101154761D01*
X103011904Y-101154761D01*
X101011904Y-101154761D02*
X101202380Y-101059523D01*
X101297619Y-100964285D01*
X101392857Y-100773809D01*
X101392857Y-100202380D01*
X101297619Y-100011904D01*
X101202380Y-99916666D01*
X101011904Y-99821428D01*
X100726190Y-99821428D01*
X100535714Y-99916666D01*
X100440476Y-100011904D01*
X100345238Y-100202380D01*
X100345238Y-100773809D01*
X100440476Y-100964285D01*
X100535714Y-101059523D01*
X100726190Y-101154761D01*
X101011904Y-101154761D01*
X99583333Y-101059523D02*
X99392857Y-101154761D01*
X99011904Y-101154761D01*
X98821428Y-101059523D01*
X98726190Y-100869047D01*
X98726190Y-100773809D01*
X98821428Y-100583333D01*
X99011904Y-100488095D01*
X99297619Y-100488095D01*
X99488095Y-100392857D01*
X99583333Y-100202380D01*
X99583333Y-100107142D01*
X99488095Y-99916666D01*
X99297619Y-99821428D01*
X99011904Y-99821428D01*
X98821428Y-99916666D01*
X97107142Y-101059523D02*
X97297619Y-101154761D01*
X97678571Y-101154761D01*
X97869047Y-101059523D01*
X97964285Y-100869047D01*
X97964285Y-100107142D01*
X97869047Y-99916666D01*
X97678571Y-99821428D01*
X97297619Y-99821428D01*
X97107142Y-99916666D01*
X97011904Y-100107142D01*
X97011904Y-100297619D01*
X97964285Y-100488095D01*
X94250000Y-99154761D02*
X93869047Y-99154761D01*
X93678571Y-99250000D01*
X93488095Y-99440476D01*
X93392857Y-99821428D01*
X93392857Y-100488095D01*
X93488095Y-100869047D01*
X93678571Y-101059523D01*
X93869047Y-101154761D01*
X94250000Y-101154761D01*
X94440476Y-101059523D01*
X94630952Y-100869047D01*
X94726190Y-100488095D01*
X94726190Y-99821428D01*
X94630952Y-99440476D01*
X94440476Y-99250000D01*
X94250000Y-99154761D01*
X92250000Y-101154761D02*
X92440476Y-101059523D01*
X92535714Y-100869047D01*
X92535714Y-99154761D01*
X90630952Y-101059523D02*
X90821428Y-101154761D01*
X91202380Y-101154761D01*
X91392857Y-101059523D01*
X91488095Y-100964285D01*
X91583333Y-100773809D01*
X91583333Y-100202380D01*
X91488095Y-100011904D01*
X91392857Y-99916666D01*
X91202380Y-99821428D01*
X90821428Y-99821428D01*
X90630952Y-99916666D01*
X89011904Y-101059523D02*
X89202380Y-101154761D01*
X89583333Y-101154761D01*
X89773809Y-101059523D01*
X89869047Y-100869047D01*
X89869047Y-100107142D01*
X89773809Y-99916666D01*
X89583333Y-99821428D01*
X89202380Y-99821428D01*
X89011904Y-99916666D01*
X88916666Y-100107142D01*
X88916666Y-100297619D01*
X89869047Y-100488095D01*
X88154761Y-101059523D02*
X87964285Y-101154761D01*
X87583333Y-101154761D01*
X87392857Y-101059523D01*
X87297619Y-100869047D01*
X87297619Y-100773809D01*
X87392857Y-100583333D01*
X87583333Y-100488095D01*
X87869047Y-100488095D01*
X88059523Y-100392857D01*
X88154761Y-100202380D01*
X88154761Y-100107142D01*
X88059523Y-99916666D01*
X87869047Y-99821428D01*
X87583333Y-99821428D01*
X87392857Y-99916666D01*
X85678571Y-101059523D02*
X85869047Y-101154761D01*
X86250000Y-101154761D01*
X86440476Y-101059523D01*
X86535714Y-100869047D01*
X86535714Y-100107142D01*
X86440476Y-99916666D01*
X86250000Y-99821428D01*
X85869047Y-99821428D01*
X85678571Y-99916666D01*
X85583333Y-100107142D01*
X85583333Y-100297619D01*
X86535714Y-100488095D01*
X101678571Y-103041428D02*
X101202380Y-104374761D01*
X100726190Y-103041428D01*
X99583333Y-102374761D02*
X99392857Y-102374761D01*
X99202380Y-102470000D01*
X99107142Y-102565238D01*
X99011904Y-102755714D01*
X98916666Y-103136666D01*
X98916666Y-103612857D01*
X99011904Y-103993809D01*
X99107142Y-104184285D01*
X99202380Y-104279523D01*
X99392857Y-104374761D01*
X99583333Y-104374761D01*
X99773809Y-104279523D01*
X99869047Y-104184285D01*
X99964285Y-103993809D01*
X100059523Y-103612857D01*
X100059523Y-103136666D01*
X99964285Y-102755714D01*
X99869047Y-102565238D01*
X99773809Y-102470000D01*
X99583333Y-102374761D01*
X98059523Y-104184285D02*
X97964285Y-104279523D01*
X98059523Y-104374761D01*
X98154761Y-104279523D01*
X98059523Y-104184285D01*
X98059523Y-104374761D01*
X96059523Y-104374761D02*
X97202380Y-104374761D01*
X96630952Y-104374761D02*
X96630952Y-102374761D01*
X96821428Y-102660476D01*
X97011904Y-102850952D01*
X97202380Y-102946190D01*
X93773809Y-102565238D02*
X93678571Y-102470000D01*
X93488095Y-102374761D01*
X93011904Y-102374761D01*
X92821428Y-102470000D01*
X92726190Y-102565238D01*
X92630952Y-102755714D01*
X92630952Y-102946190D01*
X92726190Y-103231904D01*
X93869047Y-104374761D01*
X92630952Y-104374761D01*
X91392857Y-102374761D02*
X91202380Y-102374761D01*
X91011904Y-102470000D01*
X90916666Y-102565238D01*
X90821428Y-102755714D01*
X90726190Y-103136666D01*
X90726190Y-103612857D01*
X90821428Y-103993809D01*
X90916666Y-104184285D01*
X91011904Y-104279523D01*
X91202380Y-104374761D01*
X91392857Y-104374761D01*
X91583333Y-104279523D01*
X91678571Y-104184285D01*
X91773809Y-103993809D01*
X91869047Y-103612857D01*
X91869047Y-103136666D01*
X91773809Y-102755714D01*
X91678571Y-102565238D01*
X91583333Y-102470000D01*
X91392857Y-102374761D01*
X89964285Y-102565238D02*
X89869047Y-102470000D01*
X89678571Y-102374761D01*
X89202380Y-102374761D01*
X89011904Y-102470000D01*
X88916666Y-102565238D01*
X88821428Y-102755714D01*
X88821428Y-102946190D01*
X88916666Y-103231904D01*
X90059523Y-104374761D01*
X88821428Y-104374761D01*
X88059523Y-102565238D02*
X87964285Y-102470000D01*
X87773809Y-102374761D01*
X87297619Y-102374761D01*
X87107142Y-102470000D01*
X87011904Y-102565238D01*
X86916666Y-102755714D01*
X86916666Y-102946190D01*
X87011904Y-103231904D01*
X88154761Y-104374761D01*
X86916666Y-104374761D01*
%LPC*%
D12*
X147000000Y-115500000D03*
D13*
X138330000Y-108500000D03*
X125830000Y-108500000D03*
X125830000Y-113500000D03*
X138330000Y-113500000D03*
D14*
X94890000Y-95062500D03*
X89110000Y-95062500D03*
D13*
X108760000Y-123500000D03*
X121260000Y-123500000D03*
X121260000Y-128500000D03*
X108760000Y-128500000D03*
X138260000Y-123500000D03*
X125760000Y-123500000D03*
X138260000Y-128500000D03*
X125760000Y-128500000D03*
X121260000Y-108500000D03*
X108760000Y-108500000D03*
X121260000Y-113500000D03*
X108760000Y-113500000D03*
D12*
X147000000Y-118500000D03*
X147000000Y-112500000D03*
X147000000Y-109500000D03*
D13*
X133760000Y-94500000D03*
X146260000Y-94500000D03*
X146260000Y-99500000D03*
X133760000Y-99500000D03*
M02*
