%TF.GenerationSoftware,KiCad,Pcbnew,(6.0.7)*%
%TF.CreationDate,2022-09-05T13:32:50-07:00*%
%TF.ProjectId,ElGato32,456c4761-746f-4333-922e-6b696361645f,rev?*%
%TF.SameCoordinates,Original*%
%TF.FileFunction,Drillmap*%
%TF.FilePolarity,Positive*%
%FSLAX45Y45*%
G04 Gerber Fmt 4.5, Leading zero omitted, Abs format (unit mm)*
G04 Created by KiCad (PCBNEW (6.0.7)) date 2022-09-05 13:32:50*
%MOMM*%
%LPD*%
G01*
G04 APERTURE LIST*
%ADD10C,0.100000*%
%ADD11C,0.200000*%
%ADD12C,0.065000*%
G04 APERTURE END LIST*
D10*
X15400000Y-9000000D02*
X15400000Y-13300000D01*
X8000000Y-13300000D02*
X8000000Y-9000000D01*
X8000000Y-9000000D02*
X15400000Y-9000000D01*
X15400000Y-13300000D02*
X8000000Y-13300000D01*
D11*
D12*
X8878500Y-9473750D02*
X8943500Y-9538750D01*
X8943500Y-9473750D02*
X8878500Y-9538750D01*
X9456500Y-9473750D02*
X9521500Y-9538750D01*
X9521500Y-9473750D02*
X9456500Y-9538750D01*
D11*
X8252619Y-13615476D02*
X8252619Y-13415476D01*
X8300238Y-13415476D01*
X8328809Y-13425000D01*
X8347857Y-13444048D01*
X8357381Y-13463095D01*
X8366905Y-13501190D01*
X8366905Y-13529762D01*
X8357381Y-13567857D01*
X8347857Y-13586905D01*
X8328809Y-13605952D01*
X8300238Y-13615476D01*
X8252619Y-13615476D01*
X8452619Y-13615476D02*
X8452619Y-13482143D01*
X8452619Y-13520238D02*
X8462143Y-13501190D01*
X8471667Y-13491667D01*
X8490714Y-13482143D01*
X8509762Y-13482143D01*
X8576429Y-13615476D02*
X8576429Y-13482143D01*
X8576429Y-13415476D02*
X8566905Y-13425000D01*
X8576429Y-13434524D01*
X8585952Y-13425000D01*
X8576429Y-13415476D01*
X8576429Y-13434524D01*
X8700238Y-13615476D02*
X8681190Y-13605952D01*
X8671667Y-13586905D01*
X8671667Y-13415476D01*
X8805000Y-13615476D02*
X8785952Y-13605952D01*
X8776429Y-13586905D01*
X8776429Y-13415476D01*
X9033571Y-13615476D02*
X9033571Y-13415476D01*
X9100238Y-13558333D01*
X9166905Y-13415476D01*
X9166905Y-13615476D01*
X9347857Y-13615476D02*
X9347857Y-13510714D01*
X9338333Y-13491667D01*
X9319286Y-13482143D01*
X9281190Y-13482143D01*
X9262143Y-13491667D01*
X9347857Y-13605952D02*
X9328810Y-13615476D01*
X9281190Y-13615476D01*
X9262143Y-13605952D01*
X9252619Y-13586905D01*
X9252619Y-13567857D01*
X9262143Y-13548809D01*
X9281190Y-13539286D01*
X9328810Y-13539286D01*
X9347857Y-13529762D01*
X9443095Y-13482143D02*
X9443095Y-13682143D01*
X9443095Y-13491667D02*
X9462143Y-13482143D01*
X9500238Y-13482143D01*
X9519286Y-13491667D01*
X9528810Y-13501190D01*
X9538333Y-13520238D01*
X9538333Y-13577381D01*
X9528810Y-13596428D01*
X9519286Y-13605952D01*
X9500238Y-13615476D01*
X9462143Y-13615476D01*
X9443095Y-13605952D01*
X9624048Y-13596428D02*
X9633571Y-13605952D01*
X9624048Y-13615476D01*
X9614524Y-13605952D01*
X9624048Y-13596428D01*
X9624048Y-13615476D01*
X9624048Y-13491667D02*
X9633571Y-13501190D01*
X9624048Y-13510714D01*
X9614524Y-13501190D01*
X9624048Y-13491667D01*
X9624048Y-13510714D01*
D12*
X7930000Y-13912500D02*
X7995000Y-13977500D01*
X7995000Y-13912500D02*
X7930000Y-13977500D01*
D11*
X8290714Y-13835476D02*
X8309762Y-13835476D01*
X8328809Y-13845000D01*
X8338333Y-13854524D01*
X8347857Y-13873571D01*
X8357381Y-13911667D01*
X8357381Y-13959286D01*
X8347857Y-13997381D01*
X8338333Y-14016428D01*
X8328809Y-14025952D01*
X8309762Y-14035476D01*
X8290714Y-14035476D01*
X8271667Y-14025952D01*
X8262143Y-14016428D01*
X8252619Y-13997381D01*
X8243095Y-13959286D01*
X8243095Y-13911667D01*
X8252619Y-13873571D01*
X8262143Y-13854524D01*
X8271667Y-13845000D01*
X8290714Y-13835476D01*
X8443095Y-14016428D02*
X8452619Y-14025952D01*
X8443095Y-14035476D01*
X8433571Y-14025952D01*
X8443095Y-14016428D01*
X8443095Y-14035476D01*
X8624048Y-13835476D02*
X8585952Y-13835476D01*
X8566905Y-13845000D01*
X8557381Y-13854524D01*
X8538333Y-13883095D01*
X8528810Y-13921190D01*
X8528810Y-13997381D01*
X8538333Y-14016428D01*
X8547857Y-14025952D01*
X8566905Y-14035476D01*
X8605000Y-14035476D01*
X8624048Y-14025952D01*
X8633571Y-14016428D01*
X8643095Y-13997381D01*
X8643095Y-13949762D01*
X8633571Y-13930714D01*
X8624048Y-13921190D01*
X8605000Y-13911667D01*
X8566905Y-13911667D01*
X8547857Y-13921190D01*
X8538333Y-13930714D01*
X8528810Y-13949762D01*
X8824048Y-13835476D02*
X8728810Y-13835476D01*
X8719286Y-13930714D01*
X8728810Y-13921190D01*
X8747857Y-13911667D01*
X8795476Y-13911667D01*
X8814524Y-13921190D01*
X8824048Y-13930714D01*
X8833571Y-13949762D01*
X8833571Y-13997381D01*
X8824048Y-14016428D01*
X8814524Y-14025952D01*
X8795476Y-14035476D01*
X8747857Y-14035476D01*
X8728810Y-14025952D01*
X8719286Y-14016428D01*
X8957381Y-13835476D02*
X8976429Y-13835476D01*
X8995476Y-13845000D01*
X9005000Y-13854524D01*
X9014524Y-13873571D01*
X9024048Y-13911667D01*
X9024048Y-13959286D01*
X9014524Y-13997381D01*
X9005000Y-14016428D01*
X8995476Y-14025952D01*
X8976429Y-14035476D01*
X8957381Y-14035476D01*
X8938333Y-14025952D01*
X8928810Y-14016428D01*
X8919286Y-13997381D01*
X8909762Y-13959286D01*
X8909762Y-13911667D01*
X8919286Y-13873571D01*
X8928810Y-13854524D01*
X8938333Y-13845000D01*
X8957381Y-13835476D01*
X9109762Y-14035476D02*
X9109762Y-13902143D01*
X9109762Y-13921190D02*
X9119286Y-13911667D01*
X9138333Y-13902143D01*
X9166905Y-13902143D01*
X9185952Y-13911667D01*
X9195476Y-13930714D01*
X9195476Y-14035476D01*
X9195476Y-13930714D02*
X9205000Y-13911667D01*
X9224048Y-13902143D01*
X9252619Y-13902143D01*
X9271667Y-13911667D01*
X9281190Y-13930714D01*
X9281190Y-14035476D01*
X9376429Y-14035476D02*
X9376429Y-13902143D01*
X9376429Y-13921190D02*
X9385952Y-13911667D01*
X9405000Y-13902143D01*
X9433571Y-13902143D01*
X9452619Y-13911667D01*
X9462143Y-13930714D01*
X9462143Y-14035476D01*
X9462143Y-13930714D02*
X9471667Y-13911667D01*
X9490714Y-13902143D01*
X9519286Y-13902143D01*
X9538333Y-13911667D01*
X9547857Y-13930714D01*
X9547857Y-14035476D01*
X9938333Y-13825952D02*
X9766905Y-14083095D01*
X10195476Y-13835476D02*
X10214524Y-13835476D01*
X10233571Y-13845000D01*
X10243095Y-13854524D01*
X10252619Y-13873571D01*
X10262143Y-13911667D01*
X10262143Y-13959286D01*
X10252619Y-13997381D01*
X10243095Y-14016428D01*
X10233571Y-14025952D01*
X10214524Y-14035476D01*
X10195476Y-14035476D01*
X10176429Y-14025952D01*
X10166905Y-14016428D01*
X10157381Y-13997381D01*
X10147857Y-13959286D01*
X10147857Y-13911667D01*
X10157381Y-13873571D01*
X10166905Y-13854524D01*
X10176429Y-13845000D01*
X10195476Y-13835476D01*
X10347857Y-14016428D02*
X10357381Y-14025952D01*
X10347857Y-14035476D01*
X10338333Y-14025952D01*
X10347857Y-14016428D01*
X10347857Y-14035476D01*
X10481190Y-13835476D02*
X10500238Y-13835476D01*
X10519286Y-13845000D01*
X10528810Y-13854524D01*
X10538333Y-13873571D01*
X10547857Y-13911667D01*
X10547857Y-13959286D01*
X10538333Y-13997381D01*
X10528810Y-14016428D01*
X10519286Y-14025952D01*
X10500238Y-14035476D01*
X10481190Y-14035476D01*
X10462143Y-14025952D01*
X10452619Y-14016428D01*
X10443095Y-13997381D01*
X10433571Y-13959286D01*
X10433571Y-13911667D01*
X10443095Y-13873571D01*
X10452619Y-13854524D01*
X10462143Y-13845000D01*
X10481190Y-13835476D01*
X10624048Y-13854524D02*
X10633571Y-13845000D01*
X10652619Y-13835476D01*
X10700238Y-13835476D01*
X10719286Y-13845000D01*
X10728810Y-13854524D01*
X10738333Y-13873571D01*
X10738333Y-13892619D01*
X10728810Y-13921190D01*
X10614524Y-14035476D01*
X10738333Y-14035476D01*
X10919286Y-13835476D02*
X10824048Y-13835476D01*
X10814524Y-13930714D01*
X10824048Y-13921190D01*
X10843095Y-13911667D01*
X10890714Y-13911667D01*
X10909762Y-13921190D01*
X10919286Y-13930714D01*
X10928810Y-13949762D01*
X10928810Y-13997381D01*
X10919286Y-14016428D01*
X10909762Y-14025952D01*
X10890714Y-14035476D01*
X10843095Y-14035476D01*
X10824048Y-14025952D01*
X10814524Y-14016428D01*
X11100238Y-13835476D02*
X11062143Y-13835476D01*
X11043095Y-13845000D01*
X11033571Y-13854524D01*
X11014524Y-13883095D01*
X11005000Y-13921190D01*
X11005000Y-13997381D01*
X11014524Y-14016428D01*
X11024048Y-14025952D01*
X11043095Y-14035476D01*
X11081190Y-14035476D01*
X11100238Y-14025952D01*
X11109762Y-14016428D01*
X11119286Y-13997381D01*
X11119286Y-13949762D01*
X11109762Y-13930714D01*
X11100238Y-13921190D01*
X11081190Y-13911667D01*
X11043095Y-13911667D01*
X11024048Y-13921190D01*
X11014524Y-13930714D01*
X11005000Y-13949762D01*
X11195476Y-13835476D02*
X11195476Y-13873571D01*
X11271667Y-13835476D02*
X11271667Y-13873571D01*
X11566905Y-14111667D02*
X11557381Y-14102143D01*
X11538333Y-14073571D01*
X11528809Y-14054524D01*
X11519286Y-14025952D01*
X11509762Y-13978333D01*
X11509762Y-13940238D01*
X11519286Y-13892619D01*
X11528809Y-13864048D01*
X11538333Y-13845000D01*
X11557381Y-13816428D01*
X11566905Y-13806905D01*
X11633571Y-13854524D02*
X11643095Y-13845000D01*
X11662143Y-13835476D01*
X11709762Y-13835476D01*
X11728809Y-13845000D01*
X11738333Y-13854524D01*
X11747857Y-13873571D01*
X11747857Y-13892619D01*
X11738333Y-13921190D01*
X11624048Y-14035476D01*
X11747857Y-14035476D01*
X11985952Y-14035476D02*
X11985952Y-13835476D01*
X12071667Y-14035476D02*
X12071667Y-13930714D01*
X12062143Y-13911667D01*
X12043095Y-13902143D01*
X12014524Y-13902143D01*
X11995476Y-13911667D01*
X11985952Y-13921190D01*
X12195476Y-14035476D02*
X12176428Y-14025952D01*
X12166905Y-14016428D01*
X12157381Y-13997381D01*
X12157381Y-13940238D01*
X12166905Y-13921190D01*
X12176428Y-13911667D01*
X12195476Y-13902143D01*
X12224048Y-13902143D01*
X12243095Y-13911667D01*
X12252619Y-13921190D01*
X12262143Y-13940238D01*
X12262143Y-13997381D01*
X12252619Y-14016428D01*
X12243095Y-14025952D01*
X12224048Y-14035476D01*
X12195476Y-14035476D01*
X12376428Y-14035476D02*
X12357381Y-14025952D01*
X12347857Y-14006905D01*
X12347857Y-13835476D01*
X12528809Y-14025952D02*
X12509762Y-14035476D01*
X12471667Y-14035476D01*
X12452619Y-14025952D01*
X12443095Y-14006905D01*
X12443095Y-13930714D01*
X12452619Y-13911667D01*
X12471667Y-13902143D01*
X12509762Y-13902143D01*
X12528809Y-13911667D01*
X12538333Y-13930714D01*
X12538333Y-13949762D01*
X12443095Y-13968809D01*
X12614524Y-14025952D02*
X12633571Y-14035476D01*
X12671667Y-14035476D01*
X12690714Y-14025952D01*
X12700238Y-14006905D01*
X12700238Y-13997381D01*
X12690714Y-13978333D01*
X12671667Y-13968809D01*
X12643095Y-13968809D01*
X12624048Y-13959286D01*
X12614524Y-13940238D01*
X12614524Y-13930714D01*
X12624048Y-13911667D01*
X12643095Y-13902143D01*
X12671667Y-13902143D01*
X12690714Y-13911667D01*
X12766905Y-14111667D02*
X12776428Y-14102143D01*
X12795476Y-14073571D01*
X12805000Y-14054524D01*
X12814524Y-14025952D01*
X12824048Y-13978333D01*
X12824048Y-13940238D01*
X12814524Y-13892619D01*
X12805000Y-13864048D01*
X12795476Y-13845000D01*
X12776428Y-13816428D01*
X12766905Y-13806905D01*
X13128809Y-14111667D02*
X13119286Y-14102143D01*
X13100238Y-14073571D01*
X13090714Y-14054524D01*
X13081190Y-14025952D01*
X13071667Y-13978333D01*
X13071667Y-13940238D01*
X13081190Y-13892619D01*
X13090714Y-13864048D01*
X13100238Y-13845000D01*
X13119286Y-13816428D01*
X13128809Y-13806905D01*
X13205000Y-13902143D02*
X13205000Y-14035476D01*
X13205000Y-13921190D02*
X13214524Y-13911667D01*
X13233571Y-13902143D01*
X13262143Y-13902143D01*
X13281190Y-13911667D01*
X13290714Y-13930714D01*
X13290714Y-14035476D01*
X13414524Y-14035476D02*
X13395476Y-14025952D01*
X13385952Y-14016428D01*
X13376428Y-13997381D01*
X13376428Y-13940238D01*
X13385952Y-13921190D01*
X13395476Y-13911667D01*
X13414524Y-13902143D01*
X13443095Y-13902143D01*
X13462143Y-13911667D01*
X13471667Y-13921190D01*
X13481190Y-13940238D01*
X13481190Y-13997381D01*
X13471667Y-14016428D01*
X13462143Y-14025952D01*
X13443095Y-14035476D01*
X13414524Y-14035476D01*
X13538333Y-13902143D02*
X13614524Y-13902143D01*
X13566905Y-13835476D02*
X13566905Y-14006905D01*
X13576428Y-14025952D01*
X13595476Y-14035476D01*
X13614524Y-14035476D01*
X13833571Y-13902143D02*
X13833571Y-14102143D01*
X13833571Y-13911667D02*
X13852619Y-13902143D01*
X13890714Y-13902143D01*
X13909762Y-13911667D01*
X13919286Y-13921190D01*
X13928809Y-13940238D01*
X13928809Y-13997381D01*
X13919286Y-14016428D01*
X13909762Y-14025952D01*
X13890714Y-14035476D01*
X13852619Y-14035476D01*
X13833571Y-14025952D01*
X14043095Y-14035476D02*
X14024048Y-14025952D01*
X14014524Y-14006905D01*
X14014524Y-13835476D01*
X14205000Y-14035476D02*
X14205000Y-13930714D01*
X14195476Y-13911667D01*
X14176428Y-13902143D01*
X14138333Y-13902143D01*
X14119286Y-13911667D01*
X14205000Y-14025952D02*
X14185952Y-14035476D01*
X14138333Y-14035476D01*
X14119286Y-14025952D01*
X14109762Y-14006905D01*
X14109762Y-13987857D01*
X14119286Y-13968809D01*
X14138333Y-13959286D01*
X14185952Y-13959286D01*
X14205000Y-13949762D01*
X14271667Y-13902143D02*
X14347857Y-13902143D01*
X14300238Y-13835476D02*
X14300238Y-14006905D01*
X14309762Y-14025952D01*
X14328809Y-14035476D01*
X14347857Y-14035476D01*
X14490714Y-14025952D02*
X14471667Y-14035476D01*
X14433571Y-14035476D01*
X14414524Y-14025952D01*
X14405000Y-14006905D01*
X14405000Y-13930714D01*
X14414524Y-13911667D01*
X14433571Y-13902143D01*
X14471667Y-13902143D01*
X14490714Y-13911667D01*
X14500238Y-13930714D01*
X14500238Y-13949762D01*
X14405000Y-13968809D01*
X14671667Y-14035476D02*
X14671667Y-13835476D01*
X14671667Y-14025952D02*
X14652619Y-14035476D01*
X14614524Y-14035476D01*
X14595476Y-14025952D01*
X14585952Y-14016428D01*
X14576428Y-13997381D01*
X14576428Y-13940238D01*
X14585952Y-13921190D01*
X14595476Y-13911667D01*
X14614524Y-13902143D01*
X14652619Y-13902143D01*
X14671667Y-13911667D01*
X14747857Y-14111667D02*
X14757381Y-14102143D01*
X14776428Y-14073571D01*
X14785952Y-14054524D01*
X14795476Y-14025952D01*
X14805000Y-13978333D01*
X14805000Y-13940238D01*
X14795476Y-13892619D01*
X14785952Y-13864048D01*
X14776428Y-13845000D01*
X14757381Y-13816428D01*
X14747857Y-13806905D01*
M02*
