%TF.GenerationSoftware,KiCad,Pcbnew,(6.0.7)*%
%TF.CreationDate,2022-09-05T13:32:50-07:00*%
%TF.ProjectId,ElGato32,456c4761-746f-4333-922e-6b696361645f,rev?*%
%TF.SameCoordinates,Original*%
%TF.FileFunction,Drillmap*%
%TF.FilePolarity,Positive*%
%FSLAX45Y45*%
G04 Gerber Fmt 4.5, Leading zero omitted, Abs format (unit mm)*
G04 Created by KiCad (PCBNEW (6.0.7)) date 2022-09-05 13:32:50*
%MOMM*%
%LPD*%
G01*
G04 APERTURE LIST*
%ADD10C,0.100000*%
%ADD11C,0.200000*%
%ADD12C,0.040000*%
%ADD13C,0.070000*%
%ADD14C,0.130000*%
%ADD15C,0.250000*%
G04 APERTURE END LIST*
D10*
X15400000Y-9000000D02*
X15400000Y-13300000D01*
X8000000Y-13300000D02*
X8000000Y-9000000D01*
X8000000Y-9000000D02*
X15400000Y-9000000D01*
X15400000Y-13300000D02*
X8000000Y-13300000D01*
D11*
D12*
X8130000Y-10430000D02*
X8170000Y-10470000D01*
X8170000Y-10430000D02*
X8130000Y-10470000D01*
X8130000Y-11580000D02*
X8170000Y-11620000D01*
X8170000Y-11580000D02*
X8130000Y-11620000D01*
X8130000Y-12755000D02*
X8170000Y-12795000D01*
X8170000Y-12755000D02*
X8130000Y-12795000D01*
X8155000Y-9755000D02*
X8195000Y-9795000D01*
X8195000Y-9755000D02*
X8155000Y-9795000D01*
X8380000Y-10680000D02*
X8420000Y-10720000D01*
X8420000Y-10680000D02*
X8380000Y-10720000D01*
X8380000Y-11655000D02*
X8420000Y-11695000D01*
X8420000Y-11655000D02*
X8380000Y-11695000D01*
X8405000Y-9605000D02*
X8445000Y-9645000D01*
X8445000Y-9605000D02*
X8405000Y-9645000D01*
X8555000Y-11955000D02*
X8595000Y-11995000D01*
X8595000Y-11955000D02*
X8555000Y-11995000D01*
X8555000Y-12605000D02*
X8595000Y-12645000D01*
X8595000Y-12605000D02*
X8555000Y-12645000D01*
X8580000Y-9905000D02*
X8620000Y-9945000D01*
X8620000Y-9905000D02*
X8580000Y-9945000D01*
X8730000Y-10580000D02*
X8770000Y-10620000D01*
X8770000Y-10580000D02*
X8730000Y-10620000D01*
X8730000Y-10930000D02*
X8770000Y-10970000D01*
X8770000Y-10930000D02*
X8730000Y-10970000D01*
X8730000Y-11530000D02*
X8770000Y-11570000D01*
X8770000Y-11530000D02*
X8730000Y-11570000D01*
X8905000Y-9755050D02*
X8945000Y-9795050D01*
X8945000Y-9755050D02*
X8905000Y-9795050D01*
X9155000Y-10230000D02*
X9195000Y-10270000D01*
X9195000Y-10230000D02*
X9155000Y-10270000D01*
X9205000Y-11955000D02*
X9245000Y-11995000D01*
X9245000Y-11955000D02*
X9205000Y-11995000D01*
X9205000Y-12605000D02*
X9245000Y-12645000D01*
X9245000Y-12605000D02*
X9205000Y-12645000D01*
X9230000Y-10855000D02*
X9270000Y-10895000D01*
X9270000Y-10855000D02*
X9230000Y-10895000D01*
X9420000Y-9755000D02*
X9460000Y-9795000D01*
X9460000Y-9755000D02*
X9420000Y-9795000D01*
X9530000Y-11855000D02*
X9570000Y-11895000D01*
X9570000Y-11855000D02*
X9530000Y-11895000D01*
X9558500Y-12751500D02*
X9598500Y-12791500D01*
X9598500Y-12751500D02*
X9558500Y-12791500D01*
X9630000Y-11030000D02*
X9670000Y-11070000D01*
X9670000Y-11030000D02*
X9630000Y-11070000D01*
X9655000Y-10555000D02*
X9695000Y-10595000D01*
X9695000Y-10555000D02*
X9655000Y-10595000D01*
X9655000Y-12055000D02*
X9695000Y-12095000D01*
X9695000Y-12055000D02*
X9655000Y-12095000D01*
X9705000Y-9905000D02*
X9745000Y-9945000D01*
X9745000Y-9905000D02*
X9705000Y-9945000D01*
X9880000Y-10230000D02*
X9920000Y-10270000D01*
X9920000Y-10230000D02*
X9880000Y-10270000D01*
X9891750Y-9143250D02*
X9931750Y-9183250D01*
X9931750Y-9143250D02*
X9891750Y-9183250D01*
X9980000Y-11330000D02*
X10020000Y-11370000D01*
X10020000Y-11330000D02*
X9980000Y-11370000D01*
X10280000Y-11105000D02*
X10320000Y-11145000D01*
X10320000Y-11105000D02*
X10280000Y-11145000D01*
X10480000Y-9680000D02*
X10520000Y-9720000D01*
X10520000Y-9680000D02*
X10480000Y-9720000D01*
X10480000Y-11580000D02*
X10520000Y-11620000D01*
X10520000Y-11580000D02*
X10480000Y-11620000D01*
X10527500Y-10107500D02*
X10567500Y-10147500D01*
X10567500Y-10107500D02*
X10527500Y-10147500D01*
X10605000Y-10355000D02*
X10645000Y-10395000D01*
X10645000Y-10355000D02*
X10605000Y-10395000D01*
X10805000Y-9105000D02*
X10845000Y-9145000D01*
X10845000Y-9105000D02*
X10805000Y-9145000D01*
X10830000Y-9680000D02*
X10870000Y-9720000D01*
X10870000Y-9680000D02*
X10830000Y-9720000D01*
X10955000Y-9280000D02*
X10995000Y-9320000D01*
X10995000Y-9280000D02*
X10955000Y-9320000D01*
X11130000Y-11855000D02*
X11170000Y-11895000D01*
X11170000Y-11855000D02*
X11130000Y-11895000D01*
X12255000Y-9205000D02*
X12295000Y-9245000D01*
X12295000Y-9205000D02*
X12255000Y-9245000D01*
X15080000Y-12055000D02*
X15120000Y-12095000D01*
X15120000Y-12055000D02*
X15080000Y-12095000D01*
D13*
X14735000Y-10950000D02*
G75*
G03*
X14735000Y-10950000I-35000J0D01*
G01*
X14735000Y-11250000D02*
G75*
G03*
X14735000Y-11250000I-35000J0D01*
G01*
X14735000Y-11550000D02*
G75*
G03*
X14735000Y-11550000I-35000J0D01*
G01*
X14735000Y-11850000D02*
G75*
G03*
X14735000Y-11850000I-35000J0D01*
G01*
D14*
X10876000Y-10785000D02*
X10876000Y-10915000D01*
X10811000Y-10850000D02*
X10941000Y-10850000D01*
X10876000Y-11285000D02*
X10876000Y-11415000D01*
X10811000Y-11350000D02*
X10941000Y-11350000D01*
X10876000Y-12285000D02*
X10876000Y-12415000D01*
X10811000Y-12350000D02*
X10941000Y-12350000D01*
X10876000Y-12785000D02*
X10876000Y-12915000D01*
X10811000Y-12850000D02*
X10941000Y-12850000D01*
X12126000Y-10785000D02*
X12126000Y-10915000D01*
X12061000Y-10850000D02*
X12191000Y-10850000D01*
X12126000Y-11285000D02*
X12126000Y-11415000D01*
X12061000Y-11350000D02*
X12191000Y-11350000D01*
X12126000Y-12285000D02*
X12126000Y-12415000D01*
X12061000Y-12350000D02*
X12191000Y-12350000D01*
X12126000Y-12785000D02*
X12126000Y-12915000D01*
X12061000Y-12850000D02*
X12191000Y-12850000D01*
X12576000Y-12285000D02*
X12576000Y-12415000D01*
X12511000Y-12350000D02*
X12641000Y-12350000D01*
X12576000Y-12785000D02*
X12576000Y-12915000D01*
X12511000Y-12850000D02*
X12641000Y-12850000D01*
X12583000Y-10785000D02*
X12583000Y-10915000D01*
X12518000Y-10850000D02*
X12648000Y-10850000D01*
X12583000Y-11285000D02*
X12583000Y-11415000D01*
X12518000Y-11350000D02*
X12648000Y-11350000D01*
X13376000Y-9385000D02*
X13376000Y-9515000D01*
X13311000Y-9450000D02*
X13441000Y-9450000D01*
X13376000Y-9885000D02*
X13376000Y-10015000D01*
X13311000Y-9950000D02*
X13441000Y-9950000D01*
X13826000Y-12285000D02*
X13826000Y-12415000D01*
X13761000Y-12350000D02*
X13891000Y-12350000D01*
X13826000Y-12785000D02*
X13826000Y-12915000D01*
X13761000Y-12850000D02*
X13891000Y-12850000D01*
X13833000Y-10785000D02*
X13833000Y-10915000D01*
X13768000Y-10850000D02*
X13898000Y-10850000D01*
X13833000Y-11285000D02*
X13833000Y-11415000D01*
X13768000Y-11350000D02*
X13898000Y-11350000D01*
X14626000Y-9385000D02*
X14626000Y-9515000D01*
X14561000Y-9450000D02*
X14691000Y-9450000D01*
X14626000Y-9885000D02*
X14626000Y-10015000D01*
X14561000Y-9950000D02*
X14691000Y-9950000D01*
D15*
X8388389Y-9388389D02*
X8388389Y-9211611D01*
X8211611Y-9211611D01*
X8211611Y-9388389D01*
X8388389Y-9388389D01*
X15188389Y-9388389D02*
X15188389Y-9211611D01*
X15011611Y-9211611D01*
X15011611Y-9388389D01*
X15188389Y-9388389D01*
X15188389Y-13088389D02*
X15188389Y-12911611D01*
X15011611Y-12911611D01*
X15011611Y-13088389D01*
X15188389Y-13088389D01*
D11*
X8252619Y-13615476D02*
X8252619Y-13415476D01*
X8300238Y-13415476D01*
X8328809Y-13425000D01*
X8347857Y-13444048D01*
X8357381Y-13463095D01*
X8366905Y-13501190D01*
X8366905Y-13529762D01*
X8357381Y-13567857D01*
X8347857Y-13586905D01*
X8328809Y-13605952D01*
X8300238Y-13615476D01*
X8252619Y-13615476D01*
X8452619Y-13615476D02*
X8452619Y-13482143D01*
X8452619Y-13520238D02*
X8462143Y-13501190D01*
X8471667Y-13491667D01*
X8490714Y-13482143D01*
X8509762Y-13482143D01*
X8576429Y-13615476D02*
X8576429Y-13482143D01*
X8576429Y-13415476D02*
X8566905Y-13425000D01*
X8576429Y-13434524D01*
X8585952Y-13425000D01*
X8576429Y-13415476D01*
X8576429Y-13434524D01*
X8700238Y-13615476D02*
X8681190Y-13605952D01*
X8671667Y-13586905D01*
X8671667Y-13415476D01*
X8805000Y-13615476D02*
X8785952Y-13605952D01*
X8776429Y-13586905D01*
X8776429Y-13415476D01*
X9033571Y-13615476D02*
X9033571Y-13415476D01*
X9100238Y-13558333D01*
X9166905Y-13415476D01*
X9166905Y-13615476D01*
X9347857Y-13615476D02*
X9347857Y-13510714D01*
X9338333Y-13491667D01*
X9319286Y-13482143D01*
X9281190Y-13482143D01*
X9262143Y-13491667D01*
X9347857Y-13605952D02*
X9328810Y-13615476D01*
X9281190Y-13615476D01*
X9262143Y-13605952D01*
X9252619Y-13586905D01*
X9252619Y-13567857D01*
X9262143Y-13548809D01*
X9281190Y-13539286D01*
X9328810Y-13539286D01*
X9347857Y-13529762D01*
X9443095Y-13482143D02*
X9443095Y-13682143D01*
X9443095Y-13491667D02*
X9462143Y-13482143D01*
X9500238Y-13482143D01*
X9519286Y-13491667D01*
X9528810Y-13501190D01*
X9538333Y-13520238D01*
X9538333Y-13577381D01*
X9528810Y-13596428D01*
X9519286Y-13605952D01*
X9500238Y-13615476D01*
X9462143Y-13615476D01*
X9443095Y-13605952D01*
X9624048Y-13596428D02*
X9633571Y-13605952D01*
X9624048Y-13615476D01*
X9614524Y-13605952D01*
X9624048Y-13596428D01*
X9624048Y-13615476D01*
X9624048Y-13491667D02*
X9633571Y-13501190D01*
X9624048Y-13510714D01*
X9614524Y-13501190D01*
X9624048Y-13491667D01*
X9624048Y-13510714D01*
D12*
X7955000Y-13925000D02*
X7995000Y-13965000D01*
X7995000Y-13925000D02*
X7955000Y-13965000D01*
D11*
X8290714Y-13835476D02*
X8309762Y-13835476D01*
X8328809Y-13845000D01*
X8338333Y-13854524D01*
X8347857Y-13873571D01*
X8357381Y-13911667D01*
X8357381Y-13959286D01*
X8347857Y-13997381D01*
X8338333Y-14016428D01*
X8328809Y-14025952D01*
X8309762Y-14035476D01*
X8290714Y-14035476D01*
X8271667Y-14025952D01*
X8262143Y-14016428D01*
X8252619Y-13997381D01*
X8243095Y-13959286D01*
X8243095Y-13911667D01*
X8252619Y-13873571D01*
X8262143Y-13854524D01*
X8271667Y-13845000D01*
X8290714Y-13835476D01*
X8443095Y-14016428D02*
X8452619Y-14025952D01*
X8443095Y-14035476D01*
X8433571Y-14025952D01*
X8443095Y-14016428D01*
X8443095Y-14035476D01*
X8624048Y-13902143D02*
X8624048Y-14035476D01*
X8576429Y-13825952D02*
X8528810Y-13968809D01*
X8652619Y-13968809D01*
X8766905Y-13835476D02*
X8785952Y-13835476D01*
X8805000Y-13845000D01*
X8814524Y-13854524D01*
X8824048Y-13873571D01*
X8833571Y-13911667D01*
X8833571Y-13959286D01*
X8824048Y-13997381D01*
X8814524Y-14016428D01*
X8805000Y-14025952D01*
X8785952Y-14035476D01*
X8766905Y-14035476D01*
X8747857Y-14025952D01*
X8738333Y-14016428D01*
X8728810Y-13997381D01*
X8719286Y-13959286D01*
X8719286Y-13911667D01*
X8728810Y-13873571D01*
X8738333Y-13854524D01*
X8747857Y-13845000D01*
X8766905Y-13835476D01*
X8957381Y-13835476D02*
X8976429Y-13835476D01*
X8995476Y-13845000D01*
X9005000Y-13854524D01*
X9014524Y-13873571D01*
X9024048Y-13911667D01*
X9024048Y-13959286D01*
X9014524Y-13997381D01*
X9005000Y-14016428D01*
X8995476Y-14025952D01*
X8976429Y-14035476D01*
X8957381Y-14035476D01*
X8938333Y-14025952D01*
X8928810Y-14016428D01*
X8919286Y-13997381D01*
X8909762Y-13959286D01*
X8909762Y-13911667D01*
X8919286Y-13873571D01*
X8928810Y-13854524D01*
X8938333Y-13845000D01*
X8957381Y-13835476D01*
X9109762Y-14035476D02*
X9109762Y-13902143D01*
X9109762Y-13921190D02*
X9119286Y-13911667D01*
X9138333Y-13902143D01*
X9166905Y-13902143D01*
X9185952Y-13911667D01*
X9195476Y-13930714D01*
X9195476Y-14035476D01*
X9195476Y-13930714D02*
X9205000Y-13911667D01*
X9224048Y-13902143D01*
X9252619Y-13902143D01*
X9271667Y-13911667D01*
X9281190Y-13930714D01*
X9281190Y-14035476D01*
X9376429Y-14035476D02*
X9376429Y-13902143D01*
X9376429Y-13921190D02*
X9385952Y-13911667D01*
X9405000Y-13902143D01*
X9433571Y-13902143D01*
X9452619Y-13911667D01*
X9462143Y-13930714D01*
X9462143Y-14035476D01*
X9462143Y-13930714D02*
X9471667Y-13911667D01*
X9490714Y-13902143D01*
X9519286Y-13902143D01*
X9538333Y-13911667D01*
X9547857Y-13930714D01*
X9547857Y-14035476D01*
X9938333Y-13825952D02*
X9766905Y-14083095D01*
X10195476Y-13835476D02*
X10214524Y-13835476D01*
X10233571Y-13845000D01*
X10243095Y-13854524D01*
X10252619Y-13873571D01*
X10262143Y-13911667D01*
X10262143Y-13959286D01*
X10252619Y-13997381D01*
X10243095Y-14016428D01*
X10233571Y-14025952D01*
X10214524Y-14035476D01*
X10195476Y-14035476D01*
X10176429Y-14025952D01*
X10166905Y-14016428D01*
X10157381Y-13997381D01*
X10147857Y-13959286D01*
X10147857Y-13911667D01*
X10157381Y-13873571D01*
X10166905Y-13854524D01*
X10176429Y-13845000D01*
X10195476Y-13835476D01*
X10347857Y-14016428D02*
X10357381Y-14025952D01*
X10347857Y-14035476D01*
X10338333Y-14025952D01*
X10347857Y-14016428D01*
X10347857Y-14035476D01*
X10481190Y-13835476D02*
X10500238Y-13835476D01*
X10519286Y-13845000D01*
X10528810Y-13854524D01*
X10538333Y-13873571D01*
X10547857Y-13911667D01*
X10547857Y-13959286D01*
X10538333Y-13997381D01*
X10528810Y-14016428D01*
X10519286Y-14025952D01*
X10500238Y-14035476D01*
X10481190Y-14035476D01*
X10462143Y-14025952D01*
X10452619Y-14016428D01*
X10443095Y-13997381D01*
X10433571Y-13959286D01*
X10433571Y-13911667D01*
X10443095Y-13873571D01*
X10452619Y-13854524D01*
X10462143Y-13845000D01*
X10481190Y-13835476D01*
X10738333Y-14035476D02*
X10624048Y-14035476D01*
X10681190Y-14035476D02*
X10681190Y-13835476D01*
X10662143Y-13864048D01*
X10643095Y-13883095D01*
X10624048Y-13892619D01*
X10919286Y-13835476D02*
X10824048Y-13835476D01*
X10814524Y-13930714D01*
X10824048Y-13921190D01*
X10843095Y-13911667D01*
X10890714Y-13911667D01*
X10909762Y-13921190D01*
X10919286Y-13930714D01*
X10928810Y-13949762D01*
X10928810Y-13997381D01*
X10919286Y-14016428D01*
X10909762Y-14025952D01*
X10890714Y-14035476D01*
X10843095Y-14035476D01*
X10824048Y-14025952D01*
X10814524Y-14016428D01*
X10995476Y-13835476D02*
X11128810Y-13835476D01*
X11043095Y-14035476D01*
X11195476Y-13835476D02*
X11195476Y-13873571D01*
X11271667Y-13835476D02*
X11271667Y-13873571D01*
X11566905Y-14111667D02*
X11557381Y-14102143D01*
X11538333Y-14073571D01*
X11528809Y-14054524D01*
X11519286Y-14025952D01*
X11509762Y-13978333D01*
X11509762Y-13940238D01*
X11519286Y-13892619D01*
X11528809Y-13864048D01*
X11538333Y-13845000D01*
X11557381Y-13816428D01*
X11566905Y-13806905D01*
X11624048Y-13835476D02*
X11747857Y-13835476D01*
X11681190Y-13911667D01*
X11709762Y-13911667D01*
X11728809Y-13921190D01*
X11738333Y-13930714D01*
X11747857Y-13949762D01*
X11747857Y-13997381D01*
X11738333Y-14016428D01*
X11728809Y-14025952D01*
X11709762Y-14035476D01*
X11652619Y-14035476D01*
X11633571Y-14025952D01*
X11624048Y-14016428D01*
X11843095Y-14035476D02*
X11881190Y-14035476D01*
X11900238Y-14025952D01*
X11909762Y-14016428D01*
X11928809Y-13987857D01*
X11938333Y-13949762D01*
X11938333Y-13873571D01*
X11928809Y-13854524D01*
X11919286Y-13845000D01*
X11900238Y-13835476D01*
X11862143Y-13835476D01*
X11843095Y-13845000D01*
X11833571Y-13854524D01*
X11824048Y-13873571D01*
X11824048Y-13921190D01*
X11833571Y-13940238D01*
X11843095Y-13949762D01*
X11862143Y-13959286D01*
X11900238Y-13959286D01*
X11919286Y-13949762D01*
X11928809Y-13940238D01*
X11938333Y-13921190D01*
X12176428Y-14035476D02*
X12176428Y-13835476D01*
X12262143Y-14035476D02*
X12262143Y-13930714D01*
X12252619Y-13911667D01*
X12233571Y-13902143D01*
X12205000Y-13902143D01*
X12185952Y-13911667D01*
X12176428Y-13921190D01*
X12385952Y-14035476D02*
X12366905Y-14025952D01*
X12357381Y-14016428D01*
X12347857Y-13997381D01*
X12347857Y-13940238D01*
X12357381Y-13921190D01*
X12366905Y-13911667D01*
X12385952Y-13902143D01*
X12414524Y-13902143D01*
X12433571Y-13911667D01*
X12443095Y-13921190D01*
X12452619Y-13940238D01*
X12452619Y-13997381D01*
X12443095Y-14016428D01*
X12433571Y-14025952D01*
X12414524Y-14035476D01*
X12385952Y-14035476D01*
X12566905Y-14035476D02*
X12547857Y-14025952D01*
X12538333Y-14006905D01*
X12538333Y-13835476D01*
X12719286Y-14025952D02*
X12700238Y-14035476D01*
X12662143Y-14035476D01*
X12643095Y-14025952D01*
X12633571Y-14006905D01*
X12633571Y-13930714D01*
X12643095Y-13911667D01*
X12662143Y-13902143D01*
X12700238Y-13902143D01*
X12719286Y-13911667D01*
X12728809Y-13930714D01*
X12728809Y-13949762D01*
X12633571Y-13968809D01*
X12805000Y-14025952D02*
X12824048Y-14035476D01*
X12862143Y-14035476D01*
X12881190Y-14025952D01*
X12890714Y-14006905D01*
X12890714Y-13997381D01*
X12881190Y-13978333D01*
X12862143Y-13968809D01*
X12833571Y-13968809D01*
X12814524Y-13959286D01*
X12805000Y-13940238D01*
X12805000Y-13930714D01*
X12814524Y-13911667D01*
X12833571Y-13902143D01*
X12862143Y-13902143D01*
X12881190Y-13911667D01*
X12957381Y-14111667D02*
X12966905Y-14102143D01*
X12985952Y-14073571D01*
X12995476Y-14054524D01*
X13005000Y-14025952D01*
X13014524Y-13978333D01*
X13014524Y-13940238D01*
X13005000Y-13892619D01*
X12995476Y-13864048D01*
X12985952Y-13845000D01*
X12966905Y-13816428D01*
X12957381Y-13806905D01*
D13*
X7995000Y-14209000D02*
G75*
G03*
X7995000Y-14209000I-35000J0D01*
G01*
D11*
X8290714Y-14099476D02*
X8309762Y-14099476D01*
X8328809Y-14109000D01*
X8338333Y-14118524D01*
X8347857Y-14137571D01*
X8357381Y-14175667D01*
X8357381Y-14223286D01*
X8347857Y-14261381D01*
X8338333Y-14280428D01*
X8328809Y-14289952D01*
X8309762Y-14299476D01*
X8290714Y-14299476D01*
X8271667Y-14289952D01*
X8262143Y-14280428D01*
X8252619Y-14261381D01*
X8243095Y-14223286D01*
X8243095Y-14175667D01*
X8252619Y-14137571D01*
X8262143Y-14118524D01*
X8271667Y-14109000D01*
X8290714Y-14099476D01*
X8443095Y-14280428D02*
X8452619Y-14289952D01*
X8443095Y-14299476D01*
X8433571Y-14289952D01*
X8443095Y-14280428D01*
X8443095Y-14299476D01*
X8519286Y-14099476D02*
X8652619Y-14099476D01*
X8566905Y-14299476D01*
X8766905Y-14099476D02*
X8785952Y-14099476D01*
X8805000Y-14109000D01*
X8814524Y-14118524D01*
X8824048Y-14137571D01*
X8833571Y-14175667D01*
X8833571Y-14223286D01*
X8824048Y-14261381D01*
X8814524Y-14280428D01*
X8805000Y-14289952D01*
X8785952Y-14299476D01*
X8766905Y-14299476D01*
X8747857Y-14289952D01*
X8738333Y-14280428D01*
X8728810Y-14261381D01*
X8719286Y-14223286D01*
X8719286Y-14175667D01*
X8728810Y-14137571D01*
X8738333Y-14118524D01*
X8747857Y-14109000D01*
X8766905Y-14099476D01*
X8957381Y-14099476D02*
X8976429Y-14099476D01*
X8995476Y-14109000D01*
X9005000Y-14118524D01*
X9014524Y-14137571D01*
X9024048Y-14175667D01*
X9024048Y-14223286D01*
X9014524Y-14261381D01*
X9005000Y-14280428D01*
X8995476Y-14289952D01*
X8976429Y-14299476D01*
X8957381Y-14299476D01*
X8938333Y-14289952D01*
X8928810Y-14280428D01*
X8919286Y-14261381D01*
X8909762Y-14223286D01*
X8909762Y-14175667D01*
X8919286Y-14137571D01*
X8928810Y-14118524D01*
X8938333Y-14109000D01*
X8957381Y-14099476D01*
X9109762Y-14299476D02*
X9109762Y-14166143D01*
X9109762Y-14185190D02*
X9119286Y-14175667D01*
X9138333Y-14166143D01*
X9166905Y-14166143D01*
X9185952Y-14175667D01*
X9195476Y-14194714D01*
X9195476Y-14299476D01*
X9195476Y-14194714D02*
X9205000Y-14175667D01*
X9224048Y-14166143D01*
X9252619Y-14166143D01*
X9271667Y-14175667D01*
X9281190Y-14194714D01*
X9281190Y-14299476D01*
X9376429Y-14299476D02*
X9376429Y-14166143D01*
X9376429Y-14185190D02*
X9385952Y-14175667D01*
X9405000Y-14166143D01*
X9433571Y-14166143D01*
X9452619Y-14175667D01*
X9462143Y-14194714D01*
X9462143Y-14299476D01*
X9462143Y-14194714D02*
X9471667Y-14175667D01*
X9490714Y-14166143D01*
X9519286Y-14166143D01*
X9538333Y-14175667D01*
X9547857Y-14194714D01*
X9547857Y-14299476D01*
X9938333Y-14089952D02*
X9766905Y-14347095D01*
X10195476Y-14099476D02*
X10214524Y-14099476D01*
X10233571Y-14109000D01*
X10243095Y-14118524D01*
X10252619Y-14137571D01*
X10262143Y-14175667D01*
X10262143Y-14223286D01*
X10252619Y-14261381D01*
X10243095Y-14280428D01*
X10233571Y-14289952D01*
X10214524Y-14299476D01*
X10195476Y-14299476D01*
X10176429Y-14289952D01*
X10166905Y-14280428D01*
X10157381Y-14261381D01*
X10147857Y-14223286D01*
X10147857Y-14175667D01*
X10157381Y-14137571D01*
X10166905Y-14118524D01*
X10176429Y-14109000D01*
X10195476Y-14099476D01*
X10347857Y-14280428D02*
X10357381Y-14289952D01*
X10347857Y-14299476D01*
X10338333Y-14289952D01*
X10347857Y-14280428D01*
X10347857Y-14299476D01*
X10481190Y-14099476D02*
X10500238Y-14099476D01*
X10519286Y-14109000D01*
X10528810Y-14118524D01*
X10538333Y-14137571D01*
X10547857Y-14175667D01*
X10547857Y-14223286D01*
X10538333Y-14261381D01*
X10528810Y-14280428D01*
X10519286Y-14289952D01*
X10500238Y-14299476D01*
X10481190Y-14299476D01*
X10462143Y-14289952D01*
X10452619Y-14280428D01*
X10443095Y-14261381D01*
X10433571Y-14223286D01*
X10433571Y-14175667D01*
X10443095Y-14137571D01*
X10452619Y-14118524D01*
X10462143Y-14109000D01*
X10481190Y-14099476D01*
X10624048Y-14118524D02*
X10633571Y-14109000D01*
X10652619Y-14099476D01*
X10700238Y-14099476D01*
X10719286Y-14109000D01*
X10728810Y-14118524D01*
X10738333Y-14137571D01*
X10738333Y-14156619D01*
X10728810Y-14185190D01*
X10614524Y-14299476D01*
X10738333Y-14299476D01*
X10805000Y-14099476D02*
X10938333Y-14099476D01*
X10852619Y-14299476D01*
X11100238Y-14099476D02*
X11062143Y-14099476D01*
X11043095Y-14109000D01*
X11033571Y-14118524D01*
X11014524Y-14147095D01*
X11005000Y-14185190D01*
X11005000Y-14261381D01*
X11014524Y-14280428D01*
X11024048Y-14289952D01*
X11043095Y-14299476D01*
X11081190Y-14299476D01*
X11100238Y-14289952D01*
X11109762Y-14280428D01*
X11119286Y-14261381D01*
X11119286Y-14213762D01*
X11109762Y-14194714D01*
X11100238Y-14185190D01*
X11081190Y-14175667D01*
X11043095Y-14175667D01*
X11024048Y-14185190D01*
X11014524Y-14194714D01*
X11005000Y-14213762D01*
X11195476Y-14099476D02*
X11195476Y-14137571D01*
X11271667Y-14099476D02*
X11271667Y-14137571D01*
X11566905Y-14375667D02*
X11557381Y-14366143D01*
X11538333Y-14337571D01*
X11528809Y-14318524D01*
X11519286Y-14289952D01*
X11509762Y-14242333D01*
X11509762Y-14204238D01*
X11519286Y-14156619D01*
X11528809Y-14128048D01*
X11538333Y-14109000D01*
X11557381Y-14080428D01*
X11566905Y-14070905D01*
X11728809Y-14166143D02*
X11728809Y-14299476D01*
X11681190Y-14089952D02*
X11633571Y-14232809D01*
X11757381Y-14232809D01*
X11985952Y-14299476D02*
X11985952Y-14099476D01*
X12071667Y-14299476D02*
X12071667Y-14194714D01*
X12062143Y-14175667D01*
X12043095Y-14166143D01*
X12014524Y-14166143D01*
X11995476Y-14175667D01*
X11985952Y-14185190D01*
X12195476Y-14299476D02*
X12176428Y-14289952D01*
X12166905Y-14280428D01*
X12157381Y-14261381D01*
X12157381Y-14204238D01*
X12166905Y-14185190D01*
X12176428Y-14175667D01*
X12195476Y-14166143D01*
X12224048Y-14166143D01*
X12243095Y-14175667D01*
X12252619Y-14185190D01*
X12262143Y-14204238D01*
X12262143Y-14261381D01*
X12252619Y-14280428D01*
X12243095Y-14289952D01*
X12224048Y-14299476D01*
X12195476Y-14299476D01*
X12376428Y-14299476D02*
X12357381Y-14289952D01*
X12347857Y-14270905D01*
X12347857Y-14099476D01*
X12528809Y-14289952D02*
X12509762Y-14299476D01*
X12471667Y-14299476D01*
X12452619Y-14289952D01*
X12443095Y-14270905D01*
X12443095Y-14194714D01*
X12452619Y-14175667D01*
X12471667Y-14166143D01*
X12509762Y-14166143D01*
X12528809Y-14175667D01*
X12538333Y-14194714D01*
X12538333Y-14213762D01*
X12443095Y-14232809D01*
X12614524Y-14289952D02*
X12633571Y-14299476D01*
X12671667Y-14299476D01*
X12690714Y-14289952D01*
X12700238Y-14270905D01*
X12700238Y-14261381D01*
X12690714Y-14242333D01*
X12671667Y-14232809D01*
X12643095Y-14232809D01*
X12624048Y-14223286D01*
X12614524Y-14204238D01*
X12614524Y-14194714D01*
X12624048Y-14175667D01*
X12643095Y-14166143D01*
X12671667Y-14166143D01*
X12690714Y-14175667D01*
X12766905Y-14375667D02*
X12776428Y-14366143D01*
X12795476Y-14337571D01*
X12805000Y-14318524D01*
X12814524Y-14289952D01*
X12824048Y-14242333D01*
X12824048Y-14204238D01*
X12814524Y-14156619D01*
X12805000Y-14128048D01*
X12795476Y-14109000D01*
X12776428Y-14080428D01*
X12766905Y-14070905D01*
D14*
X7930000Y-14408000D02*
X7930000Y-14538000D01*
X7865000Y-14473000D02*
X7995000Y-14473000D01*
D11*
X8357381Y-14563476D02*
X8243095Y-14563476D01*
X8300238Y-14563476D02*
X8300238Y-14363476D01*
X8281190Y-14392048D01*
X8262143Y-14411095D01*
X8243095Y-14420619D01*
X8443095Y-14544428D02*
X8452619Y-14553952D01*
X8443095Y-14563476D01*
X8433571Y-14553952D01*
X8443095Y-14544428D01*
X8443095Y-14563476D01*
X8519286Y-14363476D02*
X8643095Y-14363476D01*
X8576429Y-14439667D01*
X8605000Y-14439667D01*
X8624048Y-14449190D01*
X8633571Y-14458714D01*
X8643095Y-14477762D01*
X8643095Y-14525381D01*
X8633571Y-14544428D01*
X8624048Y-14553952D01*
X8605000Y-14563476D01*
X8547857Y-14563476D01*
X8528810Y-14553952D01*
X8519286Y-14544428D01*
X8766905Y-14363476D02*
X8785952Y-14363476D01*
X8805000Y-14373000D01*
X8814524Y-14382524D01*
X8824048Y-14401571D01*
X8833571Y-14439667D01*
X8833571Y-14487286D01*
X8824048Y-14525381D01*
X8814524Y-14544428D01*
X8805000Y-14553952D01*
X8785952Y-14563476D01*
X8766905Y-14563476D01*
X8747857Y-14553952D01*
X8738333Y-14544428D01*
X8728810Y-14525381D01*
X8719286Y-14487286D01*
X8719286Y-14439667D01*
X8728810Y-14401571D01*
X8738333Y-14382524D01*
X8747857Y-14373000D01*
X8766905Y-14363476D01*
X8957381Y-14363476D02*
X8976429Y-14363476D01*
X8995476Y-14373000D01*
X9005000Y-14382524D01*
X9014524Y-14401571D01*
X9024048Y-14439667D01*
X9024048Y-14487286D01*
X9014524Y-14525381D01*
X9005000Y-14544428D01*
X8995476Y-14553952D01*
X8976429Y-14563476D01*
X8957381Y-14563476D01*
X8938333Y-14553952D01*
X8928810Y-14544428D01*
X8919286Y-14525381D01*
X8909762Y-14487286D01*
X8909762Y-14439667D01*
X8919286Y-14401571D01*
X8928810Y-14382524D01*
X8938333Y-14373000D01*
X8957381Y-14363476D01*
X9109762Y-14563476D02*
X9109762Y-14430143D01*
X9109762Y-14449190D02*
X9119286Y-14439667D01*
X9138333Y-14430143D01*
X9166905Y-14430143D01*
X9185952Y-14439667D01*
X9195476Y-14458714D01*
X9195476Y-14563476D01*
X9195476Y-14458714D02*
X9205000Y-14439667D01*
X9224048Y-14430143D01*
X9252619Y-14430143D01*
X9271667Y-14439667D01*
X9281190Y-14458714D01*
X9281190Y-14563476D01*
X9376429Y-14563476D02*
X9376429Y-14430143D01*
X9376429Y-14449190D02*
X9385952Y-14439667D01*
X9405000Y-14430143D01*
X9433571Y-14430143D01*
X9452619Y-14439667D01*
X9462143Y-14458714D01*
X9462143Y-14563476D01*
X9462143Y-14458714D02*
X9471667Y-14439667D01*
X9490714Y-14430143D01*
X9519286Y-14430143D01*
X9538333Y-14439667D01*
X9547857Y-14458714D01*
X9547857Y-14563476D01*
X9938333Y-14353952D02*
X9766905Y-14611095D01*
X10195476Y-14363476D02*
X10214524Y-14363476D01*
X10233571Y-14373000D01*
X10243095Y-14382524D01*
X10252619Y-14401571D01*
X10262143Y-14439667D01*
X10262143Y-14487286D01*
X10252619Y-14525381D01*
X10243095Y-14544428D01*
X10233571Y-14553952D01*
X10214524Y-14563476D01*
X10195476Y-14563476D01*
X10176429Y-14553952D01*
X10166905Y-14544428D01*
X10157381Y-14525381D01*
X10147857Y-14487286D01*
X10147857Y-14439667D01*
X10157381Y-14401571D01*
X10166905Y-14382524D01*
X10176429Y-14373000D01*
X10195476Y-14363476D01*
X10347857Y-14544428D02*
X10357381Y-14553952D01*
X10347857Y-14563476D01*
X10338333Y-14553952D01*
X10347857Y-14544428D01*
X10347857Y-14563476D01*
X10481190Y-14363476D02*
X10500238Y-14363476D01*
X10519286Y-14373000D01*
X10528810Y-14382524D01*
X10538333Y-14401571D01*
X10547857Y-14439667D01*
X10547857Y-14487286D01*
X10538333Y-14525381D01*
X10528810Y-14544428D01*
X10519286Y-14553952D01*
X10500238Y-14563476D01*
X10481190Y-14563476D01*
X10462143Y-14553952D01*
X10452619Y-14544428D01*
X10443095Y-14525381D01*
X10433571Y-14487286D01*
X10433571Y-14439667D01*
X10443095Y-14401571D01*
X10452619Y-14382524D01*
X10462143Y-14373000D01*
X10481190Y-14363476D01*
X10728810Y-14363476D02*
X10633571Y-14363476D01*
X10624048Y-14458714D01*
X10633571Y-14449190D01*
X10652619Y-14439667D01*
X10700238Y-14439667D01*
X10719286Y-14449190D01*
X10728810Y-14458714D01*
X10738333Y-14477762D01*
X10738333Y-14525381D01*
X10728810Y-14544428D01*
X10719286Y-14553952D01*
X10700238Y-14563476D01*
X10652619Y-14563476D01*
X10633571Y-14553952D01*
X10624048Y-14544428D01*
X10928810Y-14563476D02*
X10814524Y-14563476D01*
X10871667Y-14563476D02*
X10871667Y-14363476D01*
X10852619Y-14392048D01*
X10833571Y-14411095D01*
X10814524Y-14420619D01*
X11005000Y-14382524D02*
X11014524Y-14373000D01*
X11033571Y-14363476D01*
X11081190Y-14363476D01*
X11100238Y-14373000D01*
X11109762Y-14382524D01*
X11119286Y-14401571D01*
X11119286Y-14420619D01*
X11109762Y-14449190D01*
X10995476Y-14563476D01*
X11119286Y-14563476D01*
X11195476Y-14363476D02*
X11195476Y-14401571D01*
X11271667Y-14363476D02*
X11271667Y-14401571D01*
X11566905Y-14639667D02*
X11557381Y-14630143D01*
X11538333Y-14601571D01*
X11528809Y-14582524D01*
X11519286Y-14553952D01*
X11509762Y-14506333D01*
X11509762Y-14468238D01*
X11519286Y-14420619D01*
X11528809Y-14392048D01*
X11538333Y-14373000D01*
X11557381Y-14344428D01*
X11566905Y-14334905D01*
X11633571Y-14382524D02*
X11643095Y-14373000D01*
X11662143Y-14363476D01*
X11709762Y-14363476D01*
X11728809Y-14373000D01*
X11738333Y-14382524D01*
X11747857Y-14401571D01*
X11747857Y-14420619D01*
X11738333Y-14449190D01*
X11624048Y-14563476D01*
X11747857Y-14563476D01*
X11871667Y-14363476D02*
X11890714Y-14363476D01*
X11909762Y-14373000D01*
X11919286Y-14382524D01*
X11928809Y-14401571D01*
X11938333Y-14439667D01*
X11938333Y-14487286D01*
X11928809Y-14525381D01*
X11919286Y-14544428D01*
X11909762Y-14553952D01*
X11890714Y-14563476D01*
X11871667Y-14563476D01*
X11852619Y-14553952D01*
X11843095Y-14544428D01*
X11833571Y-14525381D01*
X11824048Y-14487286D01*
X11824048Y-14439667D01*
X11833571Y-14401571D01*
X11843095Y-14382524D01*
X11852619Y-14373000D01*
X11871667Y-14363476D01*
X12176428Y-14563476D02*
X12176428Y-14363476D01*
X12262143Y-14563476D02*
X12262143Y-14458714D01*
X12252619Y-14439667D01*
X12233571Y-14430143D01*
X12205000Y-14430143D01*
X12185952Y-14439667D01*
X12176428Y-14449190D01*
X12385952Y-14563476D02*
X12366905Y-14553952D01*
X12357381Y-14544428D01*
X12347857Y-14525381D01*
X12347857Y-14468238D01*
X12357381Y-14449190D01*
X12366905Y-14439667D01*
X12385952Y-14430143D01*
X12414524Y-14430143D01*
X12433571Y-14439667D01*
X12443095Y-14449190D01*
X12452619Y-14468238D01*
X12452619Y-14525381D01*
X12443095Y-14544428D01*
X12433571Y-14553952D01*
X12414524Y-14563476D01*
X12385952Y-14563476D01*
X12566905Y-14563476D02*
X12547857Y-14553952D01*
X12538333Y-14534905D01*
X12538333Y-14363476D01*
X12719286Y-14553952D02*
X12700238Y-14563476D01*
X12662143Y-14563476D01*
X12643095Y-14553952D01*
X12633571Y-14534905D01*
X12633571Y-14458714D01*
X12643095Y-14439667D01*
X12662143Y-14430143D01*
X12700238Y-14430143D01*
X12719286Y-14439667D01*
X12728809Y-14458714D01*
X12728809Y-14477762D01*
X12633571Y-14496809D01*
X12805000Y-14553952D02*
X12824048Y-14563476D01*
X12862143Y-14563476D01*
X12881190Y-14553952D01*
X12890714Y-14534905D01*
X12890714Y-14525381D01*
X12881190Y-14506333D01*
X12862143Y-14496809D01*
X12833571Y-14496809D01*
X12814524Y-14487286D01*
X12805000Y-14468238D01*
X12805000Y-14458714D01*
X12814524Y-14439667D01*
X12833571Y-14430143D01*
X12862143Y-14430143D01*
X12881190Y-14439667D01*
X12957381Y-14639667D02*
X12966905Y-14630143D01*
X12985952Y-14601571D01*
X12995476Y-14582524D01*
X13005000Y-14553952D01*
X13014524Y-14506333D01*
X13014524Y-14468238D01*
X13005000Y-14420619D01*
X12995476Y-14392048D01*
X12985952Y-14373000D01*
X12966905Y-14344428D01*
X12957381Y-14334905D01*
X7965711Y-14807711D02*
X7965711Y-14666289D01*
X7824289Y-14666289D01*
X7824289Y-14807711D01*
X7965711Y-14807711D01*
X8243095Y-14646524D02*
X8252619Y-14637000D01*
X8271667Y-14627476D01*
X8319286Y-14627476D01*
X8338333Y-14637000D01*
X8347857Y-14646524D01*
X8357381Y-14665571D01*
X8357381Y-14684619D01*
X8347857Y-14713190D01*
X8233571Y-14827476D01*
X8357381Y-14827476D01*
X8443095Y-14808428D02*
X8452619Y-14817952D01*
X8443095Y-14827476D01*
X8433571Y-14817952D01*
X8443095Y-14808428D01*
X8443095Y-14827476D01*
X8633571Y-14627476D02*
X8538333Y-14627476D01*
X8528810Y-14722714D01*
X8538333Y-14713190D01*
X8557381Y-14703667D01*
X8605000Y-14703667D01*
X8624048Y-14713190D01*
X8633571Y-14722714D01*
X8643095Y-14741762D01*
X8643095Y-14789381D01*
X8633571Y-14808428D01*
X8624048Y-14817952D01*
X8605000Y-14827476D01*
X8557381Y-14827476D01*
X8538333Y-14817952D01*
X8528810Y-14808428D01*
X8766905Y-14627476D02*
X8785952Y-14627476D01*
X8805000Y-14637000D01*
X8814524Y-14646524D01*
X8824048Y-14665571D01*
X8833571Y-14703667D01*
X8833571Y-14751286D01*
X8824048Y-14789381D01*
X8814524Y-14808428D01*
X8805000Y-14817952D01*
X8785952Y-14827476D01*
X8766905Y-14827476D01*
X8747857Y-14817952D01*
X8738333Y-14808428D01*
X8728810Y-14789381D01*
X8719286Y-14751286D01*
X8719286Y-14703667D01*
X8728810Y-14665571D01*
X8738333Y-14646524D01*
X8747857Y-14637000D01*
X8766905Y-14627476D01*
X8957381Y-14627476D02*
X8976429Y-14627476D01*
X8995476Y-14637000D01*
X9005000Y-14646524D01*
X9014524Y-14665571D01*
X9024048Y-14703667D01*
X9024048Y-14751286D01*
X9014524Y-14789381D01*
X9005000Y-14808428D01*
X8995476Y-14817952D01*
X8976429Y-14827476D01*
X8957381Y-14827476D01*
X8938333Y-14817952D01*
X8928810Y-14808428D01*
X8919286Y-14789381D01*
X8909762Y-14751286D01*
X8909762Y-14703667D01*
X8919286Y-14665571D01*
X8928810Y-14646524D01*
X8938333Y-14637000D01*
X8957381Y-14627476D01*
X9109762Y-14827476D02*
X9109762Y-14694143D01*
X9109762Y-14713190D02*
X9119286Y-14703667D01*
X9138333Y-14694143D01*
X9166905Y-14694143D01*
X9185952Y-14703667D01*
X9195476Y-14722714D01*
X9195476Y-14827476D01*
X9195476Y-14722714D02*
X9205000Y-14703667D01*
X9224048Y-14694143D01*
X9252619Y-14694143D01*
X9271667Y-14703667D01*
X9281190Y-14722714D01*
X9281190Y-14827476D01*
X9376429Y-14827476D02*
X9376429Y-14694143D01*
X9376429Y-14713190D02*
X9385952Y-14703667D01*
X9405000Y-14694143D01*
X9433571Y-14694143D01*
X9452619Y-14703667D01*
X9462143Y-14722714D01*
X9462143Y-14827476D01*
X9462143Y-14722714D02*
X9471667Y-14703667D01*
X9490714Y-14694143D01*
X9519286Y-14694143D01*
X9538333Y-14703667D01*
X9547857Y-14722714D01*
X9547857Y-14827476D01*
X9938333Y-14617952D02*
X9766905Y-14875095D01*
X10195476Y-14627476D02*
X10214524Y-14627476D01*
X10233571Y-14637000D01*
X10243095Y-14646524D01*
X10252619Y-14665571D01*
X10262143Y-14703667D01*
X10262143Y-14751286D01*
X10252619Y-14789381D01*
X10243095Y-14808428D01*
X10233571Y-14817952D01*
X10214524Y-14827476D01*
X10195476Y-14827476D01*
X10176429Y-14817952D01*
X10166905Y-14808428D01*
X10157381Y-14789381D01*
X10147857Y-14751286D01*
X10147857Y-14703667D01*
X10157381Y-14665571D01*
X10166905Y-14646524D01*
X10176429Y-14637000D01*
X10195476Y-14627476D01*
X10347857Y-14808428D02*
X10357381Y-14817952D01*
X10347857Y-14827476D01*
X10338333Y-14817952D01*
X10347857Y-14808428D01*
X10347857Y-14827476D01*
X10481190Y-14627476D02*
X10500238Y-14627476D01*
X10519286Y-14637000D01*
X10528810Y-14646524D01*
X10538333Y-14665571D01*
X10547857Y-14703667D01*
X10547857Y-14751286D01*
X10538333Y-14789381D01*
X10528810Y-14808428D01*
X10519286Y-14817952D01*
X10500238Y-14827476D01*
X10481190Y-14827476D01*
X10462143Y-14817952D01*
X10452619Y-14808428D01*
X10443095Y-14789381D01*
X10433571Y-14751286D01*
X10433571Y-14703667D01*
X10443095Y-14665571D01*
X10452619Y-14646524D01*
X10462143Y-14637000D01*
X10481190Y-14627476D01*
X10643095Y-14827476D02*
X10681190Y-14827476D01*
X10700238Y-14817952D01*
X10709762Y-14808428D01*
X10728810Y-14779857D01*
X10738333Y-14741762D01*
X10738333Y-14665571D01*
X10728810Y-14646524D01*
X10719286Y-14637000D01*
X10700238Y-14627476D01*
X10662143Y-14627476D01*
X10643095Y-14637000D01*
X10633571Y-14646524D01*
X10624048Y-14665571D01*
X10624048Y-14713190D01*
X10633571Y-14732238D01*
X10643095Y-14741762D01*
X10662143Y-14751286D01*
X10700238Y-14751286D01*
X10719286Y-14741762D01*
X10728810Y-14732238D01*
X10738333Y-14713190D01*
X10852619Y-14713190D02*
X10833571Y-14703667D01*
X10824048Y-14694143D01*
X10814524Y-14675095D01*
X10814524Y-14665571D01*
X10824048Y-14646524D01*
X10833571Y-14637000D01*
X10852619Y-14627476D01*
X10890714Y-14627476D01*
X10909762Y-14637000D01*
X10919286Y-14646524D01*
X10928810Y-14665571D01*
X10928810Y-14675095D01*
X10919286Y-14694143D01*
X10909762Y-14703667D01*
X10890714Y-14713190D01*
X10852619Y-14713190D01*
X10833571Y-14722714D01*
X10824048Y-14732238D01*
X10814524Y-14751286D01*
X10814524Y-14789381D01*
X10824048Y-14808428D01*
X10833571Y-14817952D01*
X10852619Y-14827476D01*
X10890714Y-14827476D01*
X10909762Y-14817952D01*
X10919286Y-14808428D01*
X10928810Y-14789381D01*
X10928810Y-14751286D01*
X10919286Y-14732238D01*
X10909762Y-14722714D01*
X10890714Y-14713190D01*
X11100238Y-14694143D02*
X11100238Y-14827476D01*
X11052619Y-14617952D02*
X11005000Y-14760809D01*
X11128810Y-14760809D01*
X11195476Y-14627476D02*
X11195476Y-14665571D01*
X11271667Y-14627476D02*
X11271667Y-14665571D01*
X11566905Y-14903667D02*
X11557381Y-14894143D01*
X11538333Y-14865571D01*
X11528809Y-14846524D01*
X11519286Y-14817952D01*
X11509762Y-14770333D01*
X11509762Y-14732238D01*
X11519286Y-14684619D01*
X11528809Y-14656048D01*
X11538333Y-14637000D01*
X11557381Y-14608428D01*
X11566905Y-14598905D01*
X11624048Y-14627476D02*
X11747857Y-14627476D01*
X11681190Y-14703667D01*
X11709762Y-14703667D01*
X11728809Y-14713190D01*
X11738333Y-14722714D01*
X11747857Y-14741762D01*
X11747857Y-14789381D01*
X11738333Y-14808428D01*
X11728809Y-14817952D01*
X11709762Y-14827476D01*
X11652619Y-14827476D01*
X11633571Y-14817952D01*
X11624048Y-14808428D01*
X11985952Y-14827476D02*
X11985952Y-14627476D01*
X12071667Y-14827476D02*
X12071667Y-14722714D01*
X12062143Y-14703667D01*
X12043095Y-14694143D01*
X12014524Y-14694143D01*
X11995476Y-14703667D01*
X11985952Y-14713190D01*
X12195476Y-14827476D02*
X12176428Y-14817952D01*
X12166905Y-14808428D01*
X12157381Y-14789381D01*
X12157381Y-14732238D01*
X12166905Y-14713190D01*
X12176428Y-14703667D01*
X12195476Y-14694143D01*
X12224048Y-14694143D01*
X12243095Y-14703667D01*
X12252619Y-14713190D01*
X12262143Y-14732238D01*
X12262143Y-14789381D01*
X12252619Y-14808428D01*
X12243095Y-14817952D01*
X12224048Y-14827476D01*
X12195476Y-14827476D01*
X12376428Y-14827476D02*
X12357381Y-14817952D01*
X12347857Y-14798905D01*
X12347857Y-14627476D01*
X12528809Y-14817952D02*
X12509762Y-14827476D01*
X12471667Y-14827476D01*
X12452619Y-14817952D01*
X12443095Y-14798905D01*
X12443095Y-14722714D01*
X12452619Y-14703667D01*
X12471667Y-14694143D01*
X12509762Y-14694143D01*
X12528809Y-14703667D01*
X12538333Y-14722714D01*
X12538333Y-14741762D01*
X12443095Y-14760809D01*
X12614524Y-14817952D02*
X12633571Y-14827476D01*
X12671667Y-14827476D01*
X12690714Y-14817952D01*
X12700238Y-14798905D01*
X12700238Y-14789381D01*
X12690714Y-14770333D01*
X12671667Y-14760809D01*
X12643095Y-14760809D01*
X12624048Y-14751286D01*
X12614524Y-14732238D01*
X12614524Y-14722714D01*
X12624048Y-14703667D01*
X12643095Y-14694143D01*
X12671667Y-14694143D01*
X12690714Y-14703667D01*
X12766905Y-14903667D02*
X12776428Y-14894143D01*
X12795476Y-14865571D01*
X12805000Y-14846524D01*
X12814524Y-14817952D01*
X12824048Y-14770333D01*
X12824048Y-14732238D01*
X12814524Y-14684619D01*
X12805000Y-14656048D01*
X12795476Y-14637000D01*
X12776428Y-14608428D01*
X12766905Y-14598905D01*
M02*
