G04 #@! TF.GenerationSoftware,KiCad,Pcbnew,(6.0.7)*
G04 #@! TF.CreationDate,2022-09-05T13:32:46-07:00*
G04 #@! TF.ProjectId,ElGato32,456c4761-746f-4333-922e-6b696361645f,rev?*
G04 #@! TF.SameCoordinates,Original*
G04 #@! TF.FileFunction,Soldermask,Top*
G04 #@! TF.FilePolarity,Negative*
%FSLAX46Y46*%
G04 Gerber Fmt 4.6, Leading zero omitted, Abs format (unit mm)*
G04 Created by KiCad (PCBNEW (6.0.7)) date 2022-09-05 13:32:46*
%MOMM*%
%LPD*%
G01*
G04 APERTURE LIST*
%ADD10R,1.500000X1.500000*%
%ADD11R,0.800000X1.700000*%
%ADD12O,3.048000X1.850000*%
%ADD13C,0.650000*%
%ADD14R,0.600000X1.150000*%
%ADD15R,0.300000X1.150000*%
%ADD16R,2.180000X2.000000*%
%ADD17R,0.400000X0.650000*%
%ADD18R,0.900000X2.000000*%
%ADD19R,2.000000X0.900000*%
%ADD20R,5.000000X5.000000*%
G04 APERTURE END LIST*
D10*
X147000000Y-115500000D03*
G36*
G01*
X109192000Y-95140000D02*
X109708000Y-95140000D01*
G75*
G02*
X109750000Y-95182000I0J-42000D01*
G01*
X109750000Y-96448000D01*
G75*
G02*
X109708000Y-96490000I-42000J0D01*
G01*
X109192000Y-96490000D01*
G75*
G02*
X109150000Y-96448000I0J42000D01*
G01*
X109150000Y-95182000D01*
G75*
G02*
X109192000Y-95140000I42000J0D01*
G01*
G37*
G36*
G01*
X108242000Y-95140000D02*
X108758000Y-95140000D01*
G75*
G02*
X108800000Y-95182000I0J-42000D01*
G01*
X108800000Y-96448000D01*
G75*
G02*
X108758000Y-96490000I-42000J0D01*
G01*
X108242000Y-96490000D01*
G75*
G02*
X108200000Y-96448000I0J42000D01*
G01*
X108200000Y-95182000D01*
G75*
G02*
X108242000Y-95140000I42000J0D01*
G01*
G37*
G36*
G01*
X107292000Y-95140000D02*
X107808000Y-95140000D01*
G75*
G02*
X107850000Y-95182000I0J-42000D01*
G01*
X107850000Y-96448000D01*
G75*
G02*
X107808000Y-96490000I-42000J0D01*
G01*
X107292000Y-96490000D01*
G75*
G02*
X107250000Y-96448000I0J42000D01*
G01*
X107250000Y-95182000D01*
G75*
G02*
X107292000Y-95140000I42000J0D01*
G01*
G37*
G36*
G01*
X107292000Y-97510000D02*
X107808000Y-97510000D01*
G75*
G02*
X107850000Y-97552000I0J-42000D01*
G01*
X107850000Y-98818000D01*
G75*
G02*
X107808000Y-98860000I-42000J0D01*
G01*
X107292000Y-98860000D01*
G75*
G02*
X107250000Y-98818000I0J42000D01*
G01*
X107250000Y-97552000D01*
G75*
G02*
X107292000Y-97510000I42000J0D01*
G01*
G37*
G36*
G01*
X109192000Y-97510000D02*
X109708000Y-97510000D01*
G75*
G02*
X109750000Y-97552000I0J-42000D01*
G01*
X109750000Y-98818000D01*
G75*
G02*
X109708000Y-98860000I-42000J0D01*
G01*
X109192000Y-98860000D01*
G75*
G02*
X109150000Y-98818000I0J42000D01*
G01*
X109150000Y-97552000D01*
G75*
G02*
X109192000Y-97510000I42000J0D01*
G01*
G37*
G36*
G01*
X105650000Y-99050000D02*
X104350000Y-99050000D01*
G75*
G02*
X104100000Y-98800000I0J250000D01*
G01*
X104100000Y-98150000D01*
G75*
G02*
X104350000Y-97900000I250000J0D01*
G01*
X105650000Y-97900000D01*
G75*
G02*
X105900000Y-98150000I0J-250000D01*
G01*
X105900000Y-98800000D01*
G75*
G02*
X105650000Y-99050000I-250000J0D01*
G01*
G37*
G36*
G01*
X105650000Y-96100000D02*
X104350000Y-96100000D01*
G75*
G02*
X104100000Y-95850000I0J250000D01*
G01*
X104100000Y-95200000D01*
G75*
G02*
X104350000Y-94950000I250000J0D01*
G01*
X105650000Y-94950000D01*
G75*
G02*
X105900000Y-95200000I0J-250000D01*
G01*
X105900000Y-95850000D01*
G75*
G02*
X105650000Y-96100000I-250000J0D01*
G01*
G37*
G36*
G01*
X150375000Y-101225000D02*
X151625000Y-101225000D01*
G75*
G02*
X151875000Y-101475000I0J-250000D01*
G01*
X151875000Y-102100000D01*
G75*
G02*
X151625000Y-102350000I-250000J0D01*
G01*
X150375000Y-102350000D01*
G75*
G02*
X150125000Y-102100000I0J250000D01*
G01*
X150125000Y-101475000D01*
G75*
G02*
X150375000Y-101225000I250000J0D01*
G01*
G37*
G36*
G01*
X150375000Y-104150000D02*
X151625000Y-104150000D01*
G75*
G02*
X151875000Y-104400000I0J-250000D01*
G01*
X151875000Y-105025000D01*
G75*
G02*
X151625000Y-105275000I-250000J0D01*
G01*
X150375000Y-105275000D01*
G75*
G02*
X150125000Y-105025000I0J250000D01*
G01*
X150125000Y-104400000D01*
G75*
G02*
X150375000Y-104150000I250000J0D01*
G01*
G37*
G36*
G01*
X150375001Y-95550000D02*
X151624999Y-95550000D01*
G75*
G02*
X151875000Y-95800001I0J-250001D01*
G01*
X151875000Y-96724999D01*
G75*
G02*
X151624999Y-96975000I-250001J0D01*
G01*
X150375001Y-96975000D01*
G75*
G02*
X150125000Y-96724999I0J250001D01*
G01*
X150125000Y-95800001D01*
G75*
G02*
X150375001Y-95550000I250001J0D01*
G01*
G37*
G36*
G01*
X150375001Y-98525000D02*
X151624999Y-98525000D01*
G75*
G02*
X151875000Y-98775001I0J-250001D01*
G01*
X151875000Y-99699999D01*
G75*
G02*
X151624999Y-99950000I-250001J0D01*
G01*
X150375001Y-99950000D01*
G75*
G02*
X150125000Y-99699999I0J250001D01*
G01*
X150125000Y-98775001D01*
G75*
G02*
X150375001Y-98525000I250001J0D01*
G01*
G37*
D11*
X120000000Y-92250000D03*
X116600000Y-92250000D03*
D12*
X138330000Y-108500000D03*
X125830000Y-108500000D03*
X125830000Y-113500000D03*
X138330000Y-113500000D03*
G36*
G01*
X86625000Y-105025000D02*
X85375000Y-105025000D01*
G75*
G02*
X85125000Y-104775000I0J250000D01*
G01*
X85125000Y-104150000D01*
G75*
G02*
X85375000Y-103900000I250000J0D01*
G01*
X86625000Y-103900000D01*
G75*
G02*
X86875000Y-104150000I0J-250000D01*
G01*
X86875000Y-104775000D01*
G75*
G02*
X86625000Y-105025000I-250000J0D01*
G01*
G37*
G36*
G01*
X86625000Y-102100000D02*
X85375000Y-102100000D01*
G75*
G02*
X85125000Y-101850000I0J250000D01*
G01*
X85125000Y-101225000D01*
G75*
G02*
X85375000Y-100975000I250000J0D01*
G01*
X86625000Y-100975000D01*
G75*
G02*
X86875000Y-101225000I0J-250000D01*
G01*
X86875000Y-101850000D01*
G75*
G02*
X86625000Y-102100000I-250000J0D01*
G01*
G37*
G36*
G01*
X99625000Y-104775000D02*
X98375000Y-104775000D01*
G75*
G02*
X98125000Y-104525000I0J250000D01*
G01*
X98125000Y-103900000D01*
G75*
G02*
X98375000Y-103650000I250000J0D01*
G01*
X99625000Y-103650000D01*
G75*
G02*
X99875000Y-103900000I0J-250000D01*
G01*
X99875000Y-104525000D01*
G75*
G02*
X99625000Y-104775000I-250000J0D01*
G01*
G37*
G36*
G01*
X99625000Y-101850000D02*
X98375000Y-101850000D01*
G75*
G02*
X98125000Y-101600000I0J250000D01*
G01*
X98125000Y-100975000D01*
G75*
G02*
X98375000Y-100725000I250000J0D01*
G01*
X99625000Y-100725000D01*
G75*
G02*
X99875000Y-100975000I0J-250000D01*
G01*
X99875000Y-101600000D01*
G75*
G02*
X99625000Y-101850000I-250000J0D01*
G01*
G37*
D13*
X94890000Y-95062500D03*
X89110000Y-95062500D03*
D14*
X95200000Y-96137500D03*
X94400000Y-96137500D03*
D15*
X93250000Y-96137500D03*
X92250000Y-96137500D03*
X91750000Y-96137500D03*
X90750000Y-96137500D03*
D14*
X88800000Y-96137500D03*
X89600000Y-96137500D03*
D15*
X90250000Y-96137500D03*
X91250000Y-96137500D03*
X92750000Y-96137500D03*
X93750000Y-96137500D03*
D16*
X97110000Y-95562500D03*
X86890000Y-95562500D03*
X97110000Y-91632500D03*
X86890000Y-91632500D03*
G36*
G01*
X104700000Y-93650000D02*
X104700000Y-92350000D01*
G75*
G02*
X104950000Y-92100000I250000J0D01*
G01*
X105600000Y-92100000D01*
G75*
G02*
X105850000Y-92350000I0J-250000D01*
G01*
X105850000Y-93650000D01*
G75*
G02*
X105600000Y-93900000I-250000J0D01*
G01*
X104950000Y-93900000D01*
G75*
G02*
X104700000Y-93650000I0J250000D01*
G01*
G37*
G36*
G01*
X107650000Y-93650000D02*
X107650000Y-92350000D01*
G75*
G02*
X107900000Y-92100000I250000J0D01*
G01*
X108550000Y-92100000D01*
G75*
G02*
X108800000Y-92350000I0J-250000D01*
G01*
X108800000Y-93650000D01*
G75*
G02*
X108550000Y-93900000I-250000J0D01*
G01*
X107900000Y-93900000D01*
G75*
G02*
X107650000Y-93650000I0J250000D01*
G01*
G37*
D12*
X108760000Y-123500000D03*
X121260000Y-123500000D03*
X121260000Y-128500000D03*
X108760000Y-128500000D03*
G36*
G01*
X95450000Y-109295000D02*
X95450000Y-109595000D01*
G75*
G02*
X95300000Y-109745000I-150000J0D01*
G01*
X93650000Y-109745000D01*
G75*
G02*
X93500000Y-109595000I0J150000D01*
G01*
X93500000Y-109295000D01*
G75*
G02*
X93650000Y-109145000I150000J0D01*
G01*
X95300000Y-109145000D01*
G75*
G02*
X95450000Y-109295000I0J-150000D01*
G01*
G37*
G36*
G01*
X95450000Y-108025000D02*
X95450000Y-108325000D01*
G75*
G02*
X95300000Y-108475000I-150000J0D01*
G01*
X93650000Y-108475000D01*
G75*
G02*
X93500000Y-108325000I0J150000D01*
G01*
X93500000Y-108025000D01*
G75*
G02*
X93650000Y-107875000I150000J0D01*
G01*
X95300000Y-107875000D01*
G75*
G02*
X95450000Y-108025000I0J-150000D01*
G01*
G37*
G36*
G01*
X95450000Y-106755000D02*
X95450000Y-107055000D01*
G75*
G02*
X95300000Y-107205000I-150000J0D01*
G01*
X93650000Y-107205000D01*
G75*
G02*
X93500000Y-107055000I0J150000D01*
G01*
X93500000Y-106755000D01*
G75*
G02*
X93650000Y-106605000I150000J0D01*
G01*
X95300000Y-106605000D01*
G75*
G02*
X95450000Y-106755000I0J-150000D01*
G01*
G37*
G36*
G01*
X95450000Y-105485000D02*
X95450000Y-105785000D01*
G75*
G02*
X95300000Y-105935000I-150000J0D01*
G01*
X93650000Y-105935000D01*
G75*
G02*
X93500000Y-105785000I0J150000D01*
G01*
X93500000Y-105485000D01*
G75*
G02*
X93650000Y-105335000I150000J0D01*
G01*
X95300000Y-105335000D01*
G75*
G02*
X95450000Y-105485000I0J-150000D01*
G01*
G37*
G36*
G01*
X95450000Y-104215000D02*
X95450000Y-104515000D01*
G75*
G02*
X95300000Y-104665000I-150000J0D01*
G01*
X93650000Y-104665000D01*
G75*
G02*
X93500000Y-104515000I0J150000D01*
G01*
X93500000Y-104215000D01*
G75*
G02*
X93650000Y-104065000I150000J0D01*
G01*
X95300000Y-104065000D01*
G75*
G02*
X95450000Y-104215000I0J-150000D01*
G01*
G37*
G36*
G01*
X95450000Y-102945000D02*
X95450000Y-103245000D01*
G75*
G02*
X95300000Y-103395000I-150000J0D01*
G01*
X93650000Y-103395000D01*
G75*
G02*
X93500000Y-103245000I0J150000D01*
G01*
X93500000Y-102945000D01*
G75*
G02*
X93650000Y-102795000I150000J0D01*
G01*
X95300000Y-102795000D01*
G75*
G02*
X95450000Y-102945000I0J-150000D01*
G01*
G37*
G36*
G01*
X95450000Y-101675000D02*
X95450000Y-101975000D01*
G75*
G02*
X95300000Y-102125000I-150000J0D01*
G01*
X93650000Y-102125000D01*
G75*
G02*
X93500000Y-101975000I0J150000D01*
G01*
X93500000Y-101675000D01*
G75*
G02*
X93650000Y-101525000I150000J0D01*
G01*
X95300000Y-101525000D01*
G75*
G02*
X95450000Y-101675000I0J-150000D01*
G01*
G37*
G36*
G01*
X95450000Y-100405000D02*
X95450000Y-100705000D01*
G75*
G02*
X95300000Y-100855000I-150000J0D01*
G01*
X93650000Y-100855000D01*
G75*
G02*
X93500000Y-100705000I0J150000D01*
G01*
X93500000Y-100405000D01*
G75*
G02*
X93650000Y-100255000I150000J0D01*
G01*
X95300000Y-100255000D01*
G75*
G02*
X95450000Y-100405000I0J-150000D01*
G01*
G37*
G36*
G01*
X90500000Y-100405000D02*
X90500000Y-100705000D01*
G75*
G02*
X90350000Y-100855000I-150000J0D01*
G01*
X88700000Y-100855000D01*
G75*
G02*
X88550000Y-100705000I0J150000D01*
G01*
X88550000Y-100405000D01*
G75*
G02*
X88700000Y-100255000I150000J0D01*
G01*
X90350000Y-100255000D01*
G75*
G02*
X90500000Y-100405000I0J-150000D01*
G01*
G37*
G36*
G01*
X90500000Y-101675000D02*
X90500000Y-101975000D01*
G75*
G02*
X90350000Y-102125000I-150000J0D01*
G01*
X88700000Y-102125000D01*
G75*
G02*
X88550000Y-101975000I0J150000D01*
G01*
X88550000Y-101675000D01*
G75*
G02*
X88700000Y-101525000I150000J0D01*
G01*
X90350000Y-101525000D01*
G75*
G02*
X90500000Y-101675000I0J-150000D01*
G01*
G37*
G36*
G01*
X90500000Y-102945000D02*
X90500000Y-103245000D01*
G75*
G02*
X90350000Y-103395000I-150000J0D01*
G01*
X88700000Y-103395000D01*
G75*
G02*
X88550000Y-103245000I0J150000D01*
G01*
X88550000Y-102945000D01*
G75*
G02*
X88700000Y-102795000I150000J0D01*
G01*
X90350000Y-102795000D01*
G75*
G02*
X90500000Y-102945000I0J-150000D01*
G01*
G37*
G36*
G01*
X90500000Y-104215000D02*
X90500000Y-104515000D01*
G75*
G02*
X90350000Y-104665000I-150000J0D01*
G01*
X88700000Y-104665000D01*
G75*
G02*
X88550000Y-104515000I0J150000D01*
G01*
X88550000Y-104215000D01*
G75*
G02*
X88700000Y-104065000I150000J0D01*
G01*
X90350000Y-104065000D01*
G75*
G02*
X90500000Y-104215000I0J-150000D01*
G01*
G37*
G36*
G01*
X90500000Y-105485000D02*
X90500000Y-105785000D01*
G75*
G02*
X90350000Y-105935000I-150000J0D01*
G01*
X88700000Y-105935000D01*
G75*
G02*
X88550000Y-105785000I0J150000D01*
G01*
X88550000Y-105485000D01*
G75*
G02*
X88700000Y-105335000I150000J0D01*
G01*
X90350000Y-105335000D01*
G75*
G02*
X90500000Y-105485000I0J-150000D01*
G01*
G37*
G36*
G01*
X90500000Y-106755000D02*
X90500000Y-107055000D01*
G75*
G02*
X90350000Y-107205000I-150000J0D01*
G01*
X88700000Y-107205000D01*
G75*
G02*
X88550000Y-107055000I0J150000D01*
G01*
X88550000Y-106755000D01*
G75*
G02*
X88700000Y-106605000I150000J0D01*
G01*
X90350000Y-106605000D01*
G75*
G02*
X90500000Y-106755000I0J-150000D01*
G01*
G37*
G36*
G01*
X90500000Y-108025000D02*
X90500000Y-108325000D01*
G75*
G02*
X90350000Y-108475000I-150000J0D01*
G01*
X88700000Y-108475000D01*
G75*
G02*
X88550000Y-108325000I0J150000D01*
G01*
X88550000Y-108025000D01*
G75*
G02*
X88700000Y-107875000I150000J0D01*
G01*
X90350000Y-107875000D01*
G75*
G02*
X90500000Y-108025000I0J-150000D01*
G01*
G37*
G36*
G01*
X90500000Y-109295000D02*
X90500000Y-109595000D01*
G75*
G02*
X90350000Y-109745000I-150000J0D01*
G01*
X88700000Y-109745000D01*
G75*
G02*
X88550000Y-109595000I0J150000D01*
G01*
X88550000Y-109295000D01*
G75*
G02*
X88700000Y-109145000I150000J0D01*
G01*
X90350000Y-109145000D01*
G75*
G02*
X90500000Y-109295000I0J-150000D01*
G01*
G37*
G36*
G01*
X115075000Y-91625000D02*
X115075000Y-92875000D01*
G75*
G02*
X114825000Y-93125000I-250000J0D01*
G01*
X114200000Y-93125000D01*
G75*
G02*
X113950000Y-92875000I0J250000D01*
G01*
X113950000Y-91625000D01*
G75*
G02*
X114200000Y-91375000I250000J0D01*
G01*
X114825000Y-91375000D01*
G75*
G02*
X115075000Y-91625000I0J-250000D01*
G01*
G37*
G36*
G01*
X112150000Y-91625000D02*
X112150000Y-92875000D01*
G75*
G02*
X111900000Y-93125000I-250000J0D01*
G01*
X111275000Y-93125000D01*
G75*
G02*
X111025000Y-92875000I0J250000D01*
G01*
X111025000Y-91625000D01*
G75*
G02*
X111275000Y-91375000I250000J0D01*
G01*
X111900000Y-91375000D01*
G75*
G02*
X112150000Y-91625000I0J-250000D01*
G01*
G37*
X138260000Y-123500000D03*
X125760000Y-123500000D03*
X138260000Y-128500000D03*
X125760000Y-128500000D03*
X121260000Y-108500000D03*
X108760000Y-108500000D03*
X121260000Y-113500000D03*
X108760000Y-113500000D03*
D10*
X147000000Y-118500000D03*
D17*
X83350000Y-110900000D03*
X84000000Y-110900000D03*
X84650000Y-110900000D03*
X84650000Y-109000000D03*
X84000000Y-109000000D03*
X83350000Y-109000000D03*
G36*
G01*
X128125000Y-97250000D02*
X129375000Y-97250000D01*
G75*
G02*
X129625000Y-97500000I0J-250000D01*
G01*
X129625000Y-98125000D01*
G75*
G02*
X129375000Y-98375000I-250000J0D01*
G01*
X128125000Y-98375000D01*
G75*
G02*
X127875000Y-98125000I0J250000D01*
G01*
X127875000Y-97500000D01*
G75*
G02*
X128125000Y-97250000I250000J0D01*
G01*
G37*
G36*
G01*
X128125000Y-100175000D02*
X129375000Y-100175000D01*
G75*
G02*
X129625000Y-100425000I0J-250000D01*
G01*
X129625000Y-101050000D01*
G75*
G02*
X129375000Y-101300000I-250000J0D01*
G01*
X128125000Y-101300000D01*
G75*
G02*
X127875000Y-101050000I0J250000D01*
G01*
X127875000Y-100425000D01*
G75*
G02*
X128125000Y-100175000I250000J0D01*
G01*
G37*
G36*
G01*
X103650000Y-104800000D02*
X102350000Y-104800000D01*
G75*
G02*
X102100000Y-104550000I0J250000D01*
G01*
X102100000Y-103900000D01*
G75*
G02*
X102350000Y-103650000I250000J0D01*
G01*
X103650000Y-103650000D01*
G75*
G02*
X103900000Y-103900000I0J-250000D01*
G01*
X103900000Y-104550000D01*
G75*
G02*
X103650000Y-104800000I-250000J0D01*
G01*
G37*
G36*
G01*
X103650000Y-101850000D02*
X102350000Y-101850000D01*
G75*
G02*
X102100000Y-101600000I0J250000D01*
G01*
X102100000Y-100950000D01*
G75*
G02*
X102350000Y-100700000I250000J0D01*
G01*
X103650000Y-100700000D01*
G75*
G02*
X103900000Y-100950000I0J-250000D01*
G01*
X103900000Y-101600000D01*
G75*
G02*
X103650000Y-101850000I-250000J0D01*
G01*
G37*
D18*
X81500000Y-130500000D03*
X82770000Y-130500000D03*
X84040000Y-130500000D03*
X85310000Y-130500000D03*
X86580000Y-130500000D03*
X87850000Y-130500000D03*
X89120000Y-130500000D03*
X90390000Y-130500000D03*
X91660000Y-130500000D03*
X92930000Y-130500000D03*
X94200000Y-130500000D03*
X95470000Y-130500000D03*
X96740000Y-130500000D03*
X98010000Y-130500000D03*
D19*
X99010000Y-127715000D03*
X99010000Y-126445000D03*
X99010000Y-125175000D03*
X99010000Y-123905000D03*
X99010000Y-122635000D03*
X99010000Y-121365000D03*
X99010000Y-120095000D03*
X99010000Y-118825000D03*
X99010000Y-117555000D03*
X99010000Y-116285000D03*
D18*
X98010000Y-113500000D03*
X96740000Y-113500000D03*
X95470000Y-113500000D03*
X94200000Y-113500000D03*
X92930000Y-113500000D03*
X91660000Y-113500000D03*
X90390000Y-113500000D03*
X89120000Y-113500000D03*
X87850000Y-113500000D03*
X86580000Y-113500000D03*
X85310000Y-113500000D03*
X84040000Y-113500000D03*
X82770000Y-113500000D03*
X81500000Y-113500000D03*
D20*
X89000000Y-123000000D03*
G36*
G01*
X124875001Y-91562500D02*
X126124999Y-91562500D01*
G75*
G02*
X126375000Y-91812501I0J-250001D01*
G01*
X126375000Y-92737499D01*
G75*
G02*
X126124999Y-92987500I-250001J0D01*
G01*
X124875001Y-92987500D01*
G75*
G02*
X124625000Y-92737499I0J250001D01*
G01*
X124625000Y-91812501D01*
G75*
G02*
X124875001Y-91562500I250001J0D01*
G01*
G37*
G36*
G01*
X124875001Y-94537500D02*
X126124999Y-94537500D01*
G75*
G02*
X126375000Y-94787501I0J-250001D01*
G01*
X126375000Y-95712499D01*
G75*
G02*
X126124999Y-95962500I-250001J0D01*
G01*
X124875001Y-95962500D01*
G75*
G02*
X124625000Y-95712499I0J250001D01*
G01*
X124625000Y-94787501D01*
G75*
G02*
X124875001Y-94537500I250001J0D01*
G01*
G37*
G36*
G01*
X124875000Y-97250000D02*
X126125000Y-97250000D01*
G75*
G02*
X126375000Y-97500000I0J-250000D01*
G01*
X126375000Y-98125000D01*
G75*
G02*
X126125000Y-98375000I-250000J0D01*
G01*
X124875000Y-98375000D01*
G75*
G02*
X124625000Y-98125000I0J250000D01*
G01*
X124625000Y-97500000D01*
G75*
G02*
X124875000Y-97250000I250000J0D01*
G01*
G37*
G36*
G01*
X124875000Y-100175000D02*
X126125000Y-100175000D01*
G75*
G02*
X126375000Y-100425000I0J-250000D01*
G01*
X126375000Y-101050000D01*
G75*
G02*
X126125000Y-101300000I-250000J0D01*
G01*
X124875000Y-101300000D01*
G75*
G02*
X124625000Y-101050000I0J250000D01*
G01*
X124625000Y-100425000D01*
G75*
G02*
X124875000Y-100175000I250000J0D01*
G01*
G37*
G36*
G01*
X112550000Y-101124999D02*
X112550000Y-99875001D01*
G75*
G02*
X112800001Y-99625000I250001J0D01*
G01*
X113724999Y-99625000D01*
G75*
G02*
X113975000Y-99875001I0J-250001D01*
G01*
X113975000Y-101124999D01*
G75*
G02*
X113724999Y-101375000I-250001J0D01*
G01*
X112800001Y-101375000D01*
G75*
G02*
X112550000Y-101124999I0J250001D01*
G01*
G37*
G36*
G01*
X115525000Y-101124999D02*
X115525000Y-99875001D01*
G75*
G02*
X115775001Y-99625000I250001J0D01*
G01*
X116699999Y-99625000D01*
G75*
G02*
X116950000Y-99875001I0J-250001D01*
G01*
X116950000Y-101124999D01*
G75*
G02*
X116699999Y-101375000I-250001J0D01*
G01*
X115775001Y-101375000D01*
G75*
G02*
X115525000Y-101124999I0J250001D01*
G01*
G37*
G36*
G01*
X101650000Y-96050000D02*
X100350000Y-96050000D01*
G75*
G02*
X100100000Y-95800000I0J250000D01*
G01*
X100100000Y-95150000D01*
G75*
G02*
X100350000Y-94900000I250000J0D01*
G01*
X101650000Y-94900000D01*
G75*
G02*
X101900000Y-95150000I0J-250000D01*
G01*
X101900000Y-95800000D01*
G75*
G02*
X101650000Y-96050000I-250000J0D01*
G01*
G37*
G36*
G01*
X101650000Y-93100000D02*
X100350000Y-93100000D01*
G75*
G02*
X100100000Y-92850000I0J250000D01*
G01*
X100100000Y-92200000D01*
G75*
G02*
X100350000Y-91950000I250000J0D01*
G01*
X101650000Y-91950000D01*
G75*
G02*
X101900000Y-92200000I0J-250000D01*
G01*
X101900000Y-92850000D01*
G75*
G02*
X101650000Y-93100000I-250000J0D01*
G01*
G37*
G36*
G01*
X82375000Y-100975000D02*
X83625000Y-100975000D01*
G75*
G02*
X83875000Y-101225000I0J-250000D01*
G01*
X83875000Y-101850000D01*
G75*
G02*
X83625000Y-102100000I-250000J0D01*
G01*
X82375000Y-102100000D01*
G75*
G02*
X82125000Y-101850000I0J250000D01*
G01*
X82125000Y-101225000D01*
G75*
G02*
X82375000Y-100975000I250000J0D01*
G01*
G37*
G36*
G01*
X82375000Y-103900000D02*
X83625000Y-103900000D01*
G75*
G02*
X83875000Y-104150000I0J-250000D01*
G01*
X83875000Y-104775000D01*
G75*
G02*
X83625000Y-105025000I-250000J0D01*
G01*
X82375000Y-105025000D01*
G75*
G02*
X82125000Y-104775000I0J250000D01*
G01*
X82125000Y-104150000D01*
G75*
G02*
X82375000Y-103900000I250000J0D01*
G01*
G37*
G36*
G01*
X128125001Y-91550000D02*
X129374999Y-91550000D01*
G75*
G02*
X129625000Y-91800001I0J-250001D01*
G01*
X129625000Y-92724999D01*
G75*
G02*
X129374999Y-92975000I-250001J0D01*
G01*
X128125001Y-92975000D01*
G75*
G02*
X127875000Y-92724999I0J250001D01*
G01*
X127875000Y-91800001D01*
G75*
G02*
X128125001Y-91550000I250001J0D01*
G01*
G37*
G36*
G01*
X128125001Y-94525000D02*
X129374999Y-94525000D01*
G75*
G02*
X129625000Y-94775001I0J-250001D01*
G01*
X129625000Y-95699999D01*
G75*
G02*
X129374999Y-95950000I-250001J0D01*
G01*
X128125001Y-95950000D01*
G75*
G02*
X127875000Y-95699999I0J250001D01*
G01*
X127875000Y-94775001D01*
G75*
G02*
X128125001Y-94525000I250001J0D01*
G01*
G37*
D10*
X147000000Y-112500000D03*
X147000000Y-109500000D03*
G36*
G01*
X118212500Y-101125000D02*
X118212500Y-99875000D01*
G75*
G02*
X118462500Y-99625000I250000J0D01*
G01*
X119087500Y-99625000D01*
G75*
G02*
X119337500Y-99875000I0J-250000D01*
G01*
X119337500Y-101125000D01*
G75*
G02*
X119087500Y-101375000I-250000J0D01*
G01*
X118462500Y-101375000D01*
G75*
G02*
X118212500Y-101125000I0J250000D01*
G01*
G37*
G36*
G01*
X121137500Y-101125000D02*
X121137500Y-99875000D01*
G75*
G02*
X121387500Y-99625000I250000J0D01*
G01*
X122012500Y-99625000D01*
G75*
G02*
X122262500Y-99875000I0J-250000D01*
G01*
X122262500Y-101125000D01*
G75*
G02*
X122012500Y-101375000I-250000J0D01*
G01*
X121387500Y-101375000D01*
G75*
G02*
X121137500Y-101125000I0J250000D01*
G01*
G37*
G36*
G01*
X98375000Y-105975000D02*
X99625000Y-105975000D01*
G75*
G02*
X99875000Y-106225000I0J-250000D01*
G01*
X99875000Y-106850000D01*
G75*
G02*
X99625000Y-107100000I-250000J0D01*
G01*
X98375000Y-107100000D01*
G75*
G02*
X98125000Y-106850000I0J250000D01*
G01*
X98125000Y-106225000D01*
G75*
G02*
X98375000Y-105975000I250000J0D01*
G01*
G37*
G36*
G01*
X98375000Y-108900000D02*
X99625000Y-108900000D01*
G75*
G02*
X99875000Y-109150000I0J-250000D01*
G01*
X99875000Y-109775000D01*
G75*
G02*
X99625000Y-110025000I-250000J0D01*
G01*
X98375000Y-110025000D01*
G75*
G02*
X98125000Y-109775000I0J250000D01*
G01*
X98125000Y-109150000D01*
G75*
G02*
X98375000Y-108900000I250000J0D01*
G01*
G37*
D12*
X133760000Y-94500000D03*
X146260000Y-94500000D03*
X146260000Y-99500000D03*
X133760000Y-99500000D03*
G36*
G01*
X102375000Y-105975000D02*
X103625000Y-105975000D01*
G75*
G02*
X103875000Y-106225000I0J-250000D01*
G01*
X103875000Y-106850000D01*
G75*
G02*
X103625000Y-107100000I-250000J0D01*
G01*
X102375000Y-107100000D01*
G75*
G02*
X102125000Y-106850000I0J250000D01*
G01*
X102125000Y-106225000D01*
G75*
G02*
X102375000Y-105975000I250000J0D01*
G01*
G37*
G36*
G01*
X102375000Y-108900000D02*
X103625000Y-108900000D01*
G75*
G02*
X103875000Y-109150000I0J-250000D01*
G01*
X103875000Y-109775000D01*
G75*
G02*
X103625000Y-110025000I-250000J0D01*
G01*
X102375000Y-110025000D01*
G75*
G02*
X102125000Y-109775000I0J250000D01*
G01*
X102125000Y-109150000D01*
G75*
G02*
X102375000Y-108900000I250000J0D01*
G01*
G37*
G36*
G01*
X102350000Y-112425000D02*
X103650000Y-112425000D01*
G75*
G02*
X103900000Y-112675000I0J-250000D01*
G01*
X103900000Y-113325000D01*
G75*
G02*
X103650000Y-113575000I-250000J0D01*
G01*
X102350000Y-113575000D01*
G75*
G02*
X102100000Y-113325000I0J250000D01*
G01*
X102100000Y-112675000D01*
G75*
G02*
X102350000Y-112425000I250000J0D01*
G01*
G37*
G36*
G01*
X102350000Y-115375000D02*
X103650000Y-115375000D01*
G75*
G02*
X103900000Y-115625000I0J-250000D01*
G01*
X103900000Y-116275000D01*
G75*
G02*
X103650000Y-116525000I-250000J0D01*
G01*
X102350000Y-116525000D01*
G75*
G02*
X102100000Y-116275000I0J250000D01*
G01*
X102100000Y-115625000D01*
G75*
G02*
X102350000Y-115375000I250000J0D01*
G01*
G37*
G36*
G01*
X118212500Y-98125000D02*
X118212500Y-96875000D01*
G75*
G02*
X118462500Y-96625000I250000J0D01*
G01*
X119087500Y-96625000D01*
G75*
G02*
X119337500Y-96875000I0J-250000D01*
G01*
X119337500Y-98125000D01*
G75*
G02*
X119087500Y-98375000I-250000J0D01*
G01*
X118462500Y-98375000D01*
G75*
G02*
X118212500Y-98125000I0J250000D01*
G01*
G37*
G36*
G01*
X121137500Y-98125000D02*
X121137500Y-96875000D01*
G75*
G02*
X121387500Y-96625000I250000J0D01*
G01*
X122012500Y-96625000D01*
G75*
G02*
X122262500Y-96875000I0J-250000D01*
G01*
X122262500Y-98125000D01*
G75*
G02*
X122012500Y-98375000I-250000J0D01*
G01*
X121387500Y-98375000D01*
G75*
G02*
X121137500Y-98125000I0J250000D01*
G01*
G37*
G36*
G01*
X112537500Y-98124999D02*
X112537500Y-96875001D01*
G75*
G02*
X112787501Y-96625000I250001J0D01*
G01*
X113712499Y-96625000D01*
G75*
G02*
X113962500Y-96875001I0J-250001D01*
G01*
X113962500Y-98124999D01*
G75*
G02*
X113712499Y-98375000I-250001J0D01*
G01*
X112787501Y-98375000D01*
G75*
G02*
X112537500Y-98124999I0J250001D01*
G01*
G37*
G36*
G01*
X115512500Y-98124999D02*
X115512500Y-96875001D01*
G75*
G02*
X115762501Y-96625000I250001J0D01*
G01*
X116687499Y-96625000D01*
G75*
G02*
X116937500Y-96875001I0J-250001D01*
G01*
X116937500Y-98124999D01*
G75*
G02*
X116687499Y-98375000I-250001J0D01*
G01*
X115762501Y-98375000D01*
G75*
G02*
X115512500Y-98124999I0J250001D01*
G01*
G37*
M02*
